<svg width="114" height="30" viewBox="0 0 114 30" fill="none" xmlns="http://www.w3.org/2000/svg">
<g clip-path="url(#clip0_2769_41567)">
<path d="M30.1712 7.13084V22.8743C30.1712 26.8094 26.9806 30 23.0454 30H7.29441C3.36047 30 0.169922 26.8107 0.169922 22.8755V7.1283C0.169922 3.19181 3.36173 0 7.29822 0H23.0403C26.9781 0.00126861 30.1712 3.19309 30.1712 7.13084Z" fill="white"/>
<path d="M23.3601 17.4377C23.199 19.5854 21.8733 21.567 20.049 22.7074C19.3817 23.1248 18.6535 23.4356 17.8962 23.6436L17.5156 19.234C18.0979 18.804 18.514 18.129 18.5559 17.4072C20.1568 17.4174 21.7579 17.4262 23.3601 17.4377Z" fill="black"/>
<path d="M23.3651 12.8107C21.7616 12.812 20.1606 12.812 18.5583 12.812C18.571 12.0166 18.1499 11.2415 17.5181 10.7607C16.8838 10.2786 16.0605 10.0782 15.2676 10.1391C14.9226 10.1644 14.5788 10.2418 14.2552 10.3649L11.8398 6.73283C13.2759 6.13025 14.8971 5.93488 16.4575 6.08585C18.0611 6.24062 19.6633 6.75694 20.9028 7.78451C22.3782 9.01001 23.2293 10.8977 23.3651 12.8107Z" fill="black"/>
<path d="M17.8958 23.6437C16.5815 24.0026 15.1772 24.0534 13.8312 23.8225C12.2848 23.5561 10.7815 22.9167 9.6258 21.8562C6.78916 19.2454 6.36038 14.4792 7.72283 11.0299C8.2011 9.82086 8.94323 8.70958 9.94673 7.87356C10.5164 7.39785 11.1557 7.02108 11.8382 6.73438L14.2537 10.3664C13.9479 10.4844 13.6637 10.6455 13.4062 10.846C12.1858 11.8164 11.8865 13.5442 11.9004 15.1072C11.9131 16.6092 12.2239 18.2711 13.4202 19.1794C13.9593 19.5892 14.633 19.7985 15.3104 19.8378C16.0589 19.8797 16.8327 19.7097 17.4506 19.2809C17.4721 19.2657 17.495 19.2492 17.5152 19.2352L17.8958 23.6437Z" fill="black"/>
<path d="M50.2589 13.5449H48.4587C48.389 13.1492 48.2608 12.8015 48.0718 12.5009C47.8827 12.2002 47.6519 11.9453 47.3791 11.7347C47.1064 11.5253 46.8006 11.3667 46.4645 11.2602C46.1283 11.1536 45.7705 11.1003 45.3938 11.1003C44.7126 11.1003 44.1036 11.2767 43.567 11.6281C43.0304 11.9807 42.6066 12.497 42.2971 13.1771C41.9876 13.8583 41.8328 14.6892 41.8328 15.6698C41.8328 16.6594 41.9876 17.4941 42.2971 18.1754C42.6066 18.8566 43.0304 19.3704 43.5695 19.7192C44.1074 20.0681 44.7138 20.2419 45.3874 20.2419C45.7604 20.2419 46.1156 20.1899 46.4518 20.0846C46.788 19.9793 47.0937 19.8245 47.3664 19.619C47.6392 19.4135 47.8713 19.1611 48.0617 18.8617C48.252 18.5623 48.3839 18.2198 48.4575 17.8316L50.2576 17.8379C50.1612 18.4354 49.976 18.9848 49.7007 19.4846C49.4254 19.9856 49.074 20.417 48.6452 20.7785C48.2164 21.1401 47.7267 21.4205 47.1762 21.6184C46.6256 21.8162 46.0255 21.9152 45.376 21.9152C44.3523 21.9152 43.4414 21.6653 42.6409 21.1642C41.8404 20.6631 41.2112 19.9463 40.7507 19.0127C40.2915 18.0789 40.0605 16.9651 40.0605 15.6711C40.0605 14.3733 40.2915 13.2582 40.7532 12.3258C41.215 11.3934 41.8455 10.6779 42.6459 10.1768C43.4465 9.67568 44.3561 9.42578 45.3747 9.42578C46.0014 9.42578 46.5876 9.51713 47.1318 9.70231C47.676 9.88628 48.1657 10.1552 48.6008 10.5092C49.0359 10.8631 49.395 11.2944 49.6804 11.8031C49.9659 12.3106 50.1587 12.8916 50.2589 13.5449Z" fill="white"/>
<path d="M53.9812 16.3338V21.7469H52.2559V9.58984H53.9584V14.1137H54.0675C54.2755 13.6227 54.5926 13.2333 55.0189 12.9441C55.4464 12.6548 56.0034 12.5102 56.6922 12.5102C57.2998 12.5102 57.8314 12.6383 58.2881 12.8958C58.7435 13.1534 59.0975 13.5365 59.35 14.0439C59.6024 14.5527 59.728 15.1869 59.728 15.9468V21.7469H58.0027V16.1613C58.0027 15.4927 57.8352 14.9725 57.5003 14.6034C57.1654 14.2329 56.6998 14.0478 56.1036 14.0478C55.6963 14.0478 55.331 14.1366 55.01 14.3154C54.6891 14.493 54.4366 14.7543 54.2539 15.0956C54.0725 15.4381 53.9812 15.8517 53.9812 16.3338Z" fill="white"/>
<path d="M64.6162 21.9502C64.0542 21.9502 63.5468 21.8423 63.0927 21.6267C62.6385 21.411 62.2794 21.0976 62.0169 20.6854C61.753 20.2744 61.6211 19.7694 61.6211 19.1719C61.6211 18.6581 61.7175 18.2344 61.909 17.902C62.1018 17.5696 62.3607 17.3071 62.688 17.113C63.0153 16.9189 63.3806 16.773 63.784 16.674C64.1874 16.5751 64.5997 16.5002 65.0184 16.4482C65.5487 16.3848 65.98 16.3327 66.3111 16.2909C66.6422 16.249 66.882 16.1806 67.0329 16.0867C67.1826 15.9915 67.2575 15.8368 67.2575 15.6236V15.5818C67.2575 15.0629 67.1166 14.662 66.8337 14.3766C66.5508 14.0911 66.1309 13.9491 65.5728 13.9491C64.9917 13.9491 64.5351 14.081 64.2027 14.3436C63.8703 14.6074 63.6407 14.8993 63.5125 15.2189L61.8912 14.8396C62.0841 14.2852 62.3658 13.8374 62.7362 13.4949C63.1079 13.1524 63.5354 12.9037 64.02 12.7464C64.5046 12.5904 65.0145 12.5117 65.5487 12.5117C65.9026 12.5117 66.2781 12.5548 66.6765 12.6399C67.0748 12.7249 67.4478 12.8809 67.7954 13.1054C68.1429 13.3312 68.4297 13.6522 68.6517 14.0696C68.8749 14.4869 68.9866 15.0286 68.9866 15.6934V21.7484H67.3019V20.5014H67.2321C67.1205 20.731 66.953 20.9569 66.7297 21.1776C66.5064 21.3996 66.2198 21.5836 65.8696 21.7294C65.5233 21.8766 65.1046 21.9502 64.6162 21.9502ZM64.9905 20.5255C65.4675 20.5255 65.876 20.4291 66.2172 20.235C66.5572 20.0409 66.8172 19.7872 66.9961 19.4725C67.175 19.158 67.2651 18.8205 67.2651 18.4602V17.2855C67.2029 17.3489 67.0849 17.4073 66.9099 17.4606C66.7348 17.5138 66.5356 17.5595 66.3123 17.5975C66.0891 17.6356 65.8722 17.6686 65.6603 17.6991C65.4484 17.7283 65.2721 17.7536 65.1288 17.7727C64.7938 17.8158 64.4894 17.8894 64.2141 17.9921C63.9388 18.0949 63.7194 18.242 63.5557 18.4348C63.3921 18.6264 63.3108 18.8814 63.3108 19.1973C63.3108 19.6362 63.4681 19.9686 63.784 20.1919C64.0999 20.4126 64.5021 20.5255 64.9905 20.5255Z" fill="white"/>
<path d="M75.4228 12.6298V14.0545H70.582V12.6298H75.4228ZM71.8798 10.4453H73.6051V19.0706C73.6051 19.4144 73.6546 19.6732 73.7548 19.8457C73.855 20.0182 73.9844 20.1349 74.1443 20.1958C74.3041 20.2567 74.4779 20.2872 74.667 20.2872C74.8052 20.2872 74.927 20.2771 75.031 20.258C75.1351 20.2377 75.2166 20.2225 75.2736 20.2111L75.5856 21.6776C75.4851 21.7169 75.3433 21.7575 75.1579 21.7993C74.9727 21.8413 74.7431 21.8641 74.4652 21.8679C74.0111 21.8755 73.5886 21.793 73.1954 21.618C72.8034 21.4441 72.4849 21.1752 72.2439 20.8111C72.0016 20.447 71.8798 19.9903 71.8798 19.4398V10.4453Z" fill="white"/>
<path d="M77.6523 21.7488V9.5918H79.3773V14.1093H79.4816C79.5813 13.919 79.7261 13.6995 79.9136 13.4508C80.1026 13.2009 80.3643 12.9828 80.6988 12.795C81.0341 12.6072 81.4758 12.5133 82.0263 12.5133C82.7418 12.5133 83.3801 12.6999 83.9418 13.0716C84.5036 13.4433 84.9453 13.9799 85.2663 14.6802C85.5873 15.3804 85.7486 16.224 85.7486 17.2085C85.7486 18.1929 85.5881 19.0378 85.2686 19.7406C84.9491 20.4434 84.5111 20.9838 83.9531 21.3606C83.3951 21.7386 82.7583 21.9277 82.0428 21.9277C81.5036 21.9277 81.0648 21.8351 80.7243 21.6486C80.3846 21.4621 80.1183 21.2452 79.9256 20.9952C79.7328 20.7453 79.5851 20.5246 79.4816 20.3305H79.3368V21.7488H77.6523ZM79.3421 17.1894C79.3421 17.8301 79.4321 18.3921 79.6136 18.8754C79.7943 19.3587 80.0561 19.7355 80.3988 20.0058C80.7408 20.2773 81.1593 20.413 81.6573 20.413C82.1718 20.413 82.6031 20.2722 82.9496 19.988C83.2961 19.7051 83.5586 19.3207 83.7378 18.8336C83.9163 18.3464 84.0063 17.7984 84.0063 17.1894C84.0063 16.5882 83.9186 16.0477 83.7438 15.5694C83.5691 15.0912 83.3073 14.7131 82.9586 14.4353C82.6098 14.1588 82.1771 14.0192 81.6573 14.0192C81.1571 14.0192 80.7348 14.1524 80.3906 14.4175C80.0471 14.6827 79.7861 15.0531 79.6091 15.5276C79.4306 16.002 79.3421 16.5564 79.3421 17.1894Z" fill="white"/>
<path d="M90.2584 21.9502C89.6967 21.9502 89.1889 21.8423 88.7352 21.6267C88.2807 21.411 87.9222 21.0976 87.6597 20.6854C87.3957 20.2744 87.2637 19.7694 87.2637 19.1719C87.2637 18.6581 87.3597 18.2344 87.5517 17.902C87.7444 17.5696 88.0032 17.3071 88.3302 17.113C88.6579 16.9189 89.0232 16.773 89.4267 16.674C89.8302 16.5751 90.2419 16.5002 90.6612 16.4482C91.1914 16.3848 91.6227 16.3327 91.9534 16.2909C92.2849 16.249 92.5242 16.1806 92.6757 16.0867C92.8249 15.9915 92.8999 15.8368 92.8999 15.6236V15.5818C92.8999 15.0629 92.7589 14.662 92.4762 14.3766C92.1934 14.0911 91.7734 13.9491 91.2154 13.9491C90.6342 13.9491 90.1774 14.081 89.8452 14.3436C89.5129 14.6074 89.2834 14.8993 89.1552 15.2189L87.5337 14.8396C87.7264 14.2852 88.0084 13.8374 88.3789 13.4949C88.7502 13.1524 89.1777 12.9037 89.6622 12.7464C90.1474 12.5904 90.6574 12.5117 91.1914 12.5117C91.5454 12.5117 91.9204 12.5548 92.3187 12.6399C92.7169 12.7249 93.0904 12.8809 93.4377 13.1054C93.7857 13.3312 94.0722 13.6522 94.2957 14.0696C94.5184 14.4869 94.6302 15.0286 94.6302 15.6934V21.7484H92.9457V20.5014H92.8759C92.7642 20.731 92.5969 20.9569 92.3734 21.1776C92.1499 21.3996 91.8634 21.5836 91.5132 21.7294C91.1667 21.8766 90.7474 21.9502 90.2584 21.9502ZM90.6342 20.5255C91.1112 20.5255 91.5199 20.4291 91.8612 20.235C92.2009 20.0409 92.4612 19.7872 92.6397 19.4725C92.8189 19.158 92.9089 18.8205 92.9089 18.4602V17.2855C92.8467 17.3489 92.7289 17.4073 92.5534 17.4606C92.3787 17.5138 92.1792 17.5595 91.9564 17.5975C91.7329 17.6356 91.5162 17.6686 91.3039 17.6991C91.0924 17.7295 90.9162 17.7536 90.7737 17.7727C90.4392 17.8158 90.1347 17.8894 89.8594 17.9921C89.5842 18.0949 89.3644 18.242 89.2009 18.4348C89.0367 18.6264 88.9557 18.8814 88.9557 19.1973C88.9557 19.6362 89.1132 19.9686 89.4289 20.1919C89.7439 20.4126 90.1459 20.5255 90.6342 20.5255Z" fill="white"/>
<path d="M103.571 14.8561L102.006 15.1415C101.94 14.936 101.838 14.7394 101.698 14.5542C101.557 14.3677 101.368 14.2155 101.13 14.0975C100.891 13.9783 100.593 13.9199 100.236 13.9199C99.7474 13.9199 99.3387 14.0315 99.0124 14.2548C98.6854 14.4781 98.5219 14.7661 98.5219 15.1187C98.5219 15.4232 98.6306 15.6693 98.8504 15.8545C99.0694 16.041 99.4234 16.1932 99.9117 16.3112L101.32 16.6436C102.136 16.8376 102.744 17.1358 103.143 17.5405C103.542 17.9439 103.743 18.4691 103.743 19.1135C103.743 19.6591 103.59 20.1449 103.284 20.5712C102.978 20.9962 102.553 21.3298 102.009 21.5708C101.465 21.8119 100.834 21.9324 100.119 21.9324C99.1264 21.9324 98.3164 21.7142 97.6894 21.2765C97.0624 20.8389 96.6769 20.2172 96.5352 19.4092L98.2032 19.1478C98.3074 19.5956 98.5204 19.9318 98.8436 20.1601C99.1676 20.3872 99.5884 20.5014 100.107 20.5014C100.673 20.5014 101.125 20.3796 101.463 20.1361C101.802 19.8925 101.971 19.5943 101.971 19.243C101.971 18.9575 101.868 18.719 101.663 18.5249C101.457 18.3308 101.142 18.1849 100.719 18.086L99.2179 17.7472C98.3907 17.5531 97.7809 17.2449 97.3864 16.8212C96.9919 16.3975 96.7954 15.8621 96.7954 15.2126C96.7954 14.6747 96.9409 14.204 97.2341 13.7994C97.5259 13.396 97.9302 13.0801 98.4454 12.853C98.9607 12.6259 99.5516 12.5117 100.216 12.5117C101.175 12.5117 101.928 12.7249 102.478 13.1498C103.03 13.5748 103.393 14.1444 103.571 14.8561Z" fill="white"/>
<path d="M109.456 21.9327C108.584 21.9327 107.833 21.7398 107.203 21.3541C106.574 20.9685 106.09 20.4243 105.75 19.7215C105.41 19.0186 105.238 18.1954 105.238 17.2489C105.238 16.3153 105.409 15.4919 105.75 14.779C106.09 14.0673 106.567 13.5103 107.181 13.1107C107.795 12.7111 108.513 12.5107 109.336 12.5107C109.836 12.5107 110.32 12.5957 110.79 12.7657C111.259 12.9357 111.681 13.2034 112.054 13.5675C112.426 13.9315 112.721 14.4034 112.936 14.9832C113.152 15.563 113.26 16.267 113.26 17.0929V17.7221H106.214V16.3927H111.569C111.569 15.9258 111.476 15.511 111.292 15.1494C111.107 14.7879 110.848 14.5012 110.516 14.2918C110.184 14.0825 109.794 13.9772 109.348 13.9772C108.863 13.9772 108.441 14.099 108.082 14.3426C107.722 14.5861 107.445 14.902 107.251 15.2928C107.056 15.6823 106.959 16.1047 106.959 16.5601V17.5991C106.959 18.208 107.064 18.7269 107.273 19.1544C107.483 19.5819 107.776 19.9067 108.154 20.1313C108.532 20.3557 108.971 20.4661 109.476 20.4661C109.803 20.4661 110.101 20.4179 110.37 20.3203C110.639 20.2238 110.872 20.0779 111.068 19.8838C111.265 19.6897 111.414 19.45 111.518 19.1658L113.151 19.469C113.02 19.9638 112.787 20.3964 112.45 20.7655C112.113 21.136 111.692 21.4227 111.186 21.6256C110.68 21.8299 110.104 21.9327 109.456 21.9327Z" fill="white"/>
</g>
<defs>
<clipPath id="clip0_2769_41567">
<rect width="113.25" height="30" fill="white" transform="translate(0.169922)"/>
</clipPath>
</defs>
</svg>
