<svg width="104" height="30" viewBox="0 0 104 30" fill="none" xmlns="http://www.w3.org/2000/svg">
<g clip-path="url(#clip0_2769_41580)">
<mask id="mask0_2769_41580" style="mask-type:luminance" maskUnits="userSpaceOnUse" x="0" y="5" width="21" height="20">
<path d="M20.7109 5H0.710938V25H20.7109V5Z" fill="white"/>
</mask>
<g mask="url(#mask0_2769_41580)">
<path d="M20.5454 9.15375L16.5564 5.16542C16.3364 4.94486 15.9798 4.94486 15.7587 5.16542L2.59705 18.3271C2.37649 18.5477 2.37649 18.9037 2.59705 19.1255C2.99705 19.5249 0.852604 23.5471 0.710938 23.8455L1.85983 24.9999C2.1576 24.8582 6.18483 22.7137 6.58539 23.1137C6.80594 23.3344 7.1626 23.3344 7.38316 23.1137L20.5454 9.95153C20.7659 9.73153 20.7659 9.37431 20.5454 9.15375Z" fill="#CCCCCC"/>
<path d="M3.00977 17.9101L15.3808 5.53906L20.1697 10.3279L7.79865 22.699L3.00977 17.9101Z" fill="#CCCCCC"/>
<path d="M13.7852 7.13664L14.5836 6.33887L19.3724 11.1278L18.5742 11.9255L13.7852 7.13664ZM3.80859 17.1128L4.60637 16.3144L9.39526 21.1034L8.59692 21.9016L3.80859 17.1128Z" fill="black"/>
<path d="M15.6471 10.1954C14.8021 9.35038 12.3238 10.4598 10.1099 12.6726C7.89709 14.8859 6.78821 17.3648 7.63266 18.2098C8.47709 19.0548 10.9565 17.9454 13.1699 15.7326C15.3827 13.5193 16.4916 11.0398 15.6471 10.1954Z" fill="#CCCCCC"/>
</g>
<path d="M35.3504 21.4497C34.0838 21.4497 32.997 21.2431 32.0904 20.8297C31.197 20.4164 30.497 19.8097 29.9904 19.0097C29.497 18.2097 29.2238 17.2164 29.1704 16.0297C29.157 15.4831 29.1504 14.8964 29.1504 14.2697C29.1504 13.6431 29.157 13.0431 29.1704 12.4698C29.2238 11.3098 29.5038 10.3298 30.0104 9.52981C30.517 8.71647 31.2238 8.10314 32.1304 7.6898C33.037 7.26314 34.1104 7.0498 35.3504 7.0498C36.2304 7.0498 37.0438 7.16314 37.7904 7.38981C38.537 7.60314 39.1904 7.92314 39.7504 8.3498C40.3104 8.76314 40.7438 9.2698 41.0504 9.86981C41.3704 10.4565 41.537 11.1231 41.5504 11.8698C41.5638 11.9898 41.5238 12.0898 41.4304 12.1698C41.3504 12.2498 41.2504 12.2898 41.1304 12.2898H38.4304C38.257 12.2898 38.1238 12.2565 38.0304 12.1898C37.937 12.1098 37.857 11.9698 37.7904 11.7698C37.6038 11.0631 37.297 10.5831 36.8704 10.3298C36.457 10.0631 35.9438 9.9298 35.3304 9.9298C34.597 9.9298 34.017 10.1365 33.5904 10.5498C33.1638 10.9498 32.9304 11.6231 32.8904 12.5697C32.8504 13.6631 32.8504 14.7831 32.8904 15.9297C32.9304 16.8764 33.1638 17.5564 33.5904 17.9697C34.017 18.3697 34.597 18.5697 35.3304 18.5697C35.9438 18.5697 36.4638 18.4364 36.8904 18.1697C37.317 17.9031 37.617 17.4231 37.7904 16.7297C37.8438 16.5297 37.917 16.3964 38.0104 16.3297C38.117 16.2497 38.257 16.2097 38.4304 16.2097H41.1304C41.2504 16.2097 41.3504 16.2497 41.4304 16.3297C41.5238 16.4097 41.5638 16.5097 41.5504 16.6297C41.537 17.3764 41.3704 18.0497 41.0504 18.6497C40.7438 19.2364 40.3104 19.7431 39.7504 20.1697C39.1904 20.5831 38.537 20.9031 37.7904 21.1297C37.0438 21.3431 36.2304 21.4497 35.3504 21.4497ZM43.5334 21.2497C43.3866 21.2497 43.2666 21.2031 43.1734 21.1097C43.08 21.0164 43.0334 20.8964 43.0334 20.7497V11.3498C43.0334 11.2165 43.08 11.1031 43.1734 11.0098C43.2666 10.9031 43.3866 10.8498 43.5334 10.8498H45.8334C45.98 10.8498 46.1 10.9031 46.1934 11.0098C46.2866 11.1031 46.3334 11.2165 46.3334 11.3498V12.1498C46.6934 11.7365 47.12 11.4165 47.6134 11.1898C48.12 10.9631 48.6866 10.8498 49.3134 10.8498H50.1934C50.3266 10.8498 50.44 10.8965 50.5334 10.9898C50.64 11.0831 50.6934 11.2031 50.6934 11.3498V13.4097C50.6934 13.5431 50.64 13.6631 50.5334 13.7697C50.44 13.8631 50.3266 13.9097 50.1934 13.9097H48.2534C47.7066 13.9097 47.28 14.0631 46.9734 14.3697C46.68 14.6631 46.5334 15.0831 46.5334 15.6297V20.7497C46.5334 20.8964 46.48 21.0164 46.3734 21.1097C46.28 21.2031 46.16 21.2497 46.0134 21.2497H43.5334ZM70.3554 25.0497C70.2354 25.0497 70.1354 25.0097 70.0554 24.9297C69.9754 24.8497 69.9354 24.7497 69.9354 24.6297C69.9354 24.6031 69.9354 24.5631 69.9354 24.5097C69.9488 24.4697 69.9688 24.4231 69.9954 24.3697L71.5554 20.6097L67.7154 11.5298C67.6754 11.4365 67.6554 11.3565 67.6554 11.2898C67.682 11.1698 67.7354 11.0698 67.8154 10.9898C67.8954 10.8965 67.9954 10.8498 68.1154 10.8498H70.3954C70.5688 10.8498 70.6954 10.8965 70.7754 10.9898C70.8688 11.0698 70.9288 11.1631 70.9554 11.2698L73.2554 17.0897L75.5954 11.2698C75.6488 11.1631 75.7154 11.0698 75.7954 10.9898C75.8888 10.8965 76.022 10.8498 76.1954 10.8498H78.4354C78.5554 10.8498 78.6554 10.8965 78.7354 10.9898C78.8288 11.0698 78.8754 11.1631 78.8754 11.2698C78.8754 11.3365 78.8554 11.4231 78.8154 11.5298L73.1554 24.6297C73.1154 24.7364 73.0488 24.8297 72.9554 24.9097C72.862 25.0031 72.7288 25.0497 72.5554 25.0497H70.3554ZM84.4784 21.4497C83.3584 21.4497 82.4116 21.2697 81.6384 20.9097C80.8784 20.5497 80.2916 20.0364 79.8784 19.3697C79.4784 18.6897 79.2516 17.8831 79.1984 16.9497C79.185 16.6831 79.1784 16.3831 79.1784 16.0497C79.1784 15.7031 79.185 15.4031 79.1984 15.1497C79.2516 14.2031 79.4916 13.3964 79.9184 12.7297C80.345 12.0631 80.9384 11.5498 81.6984 11.1898C82.4716 10.8298 83.3984 10.6498 84.4784 10.6498C85.5716 10.6498 86.4984 10.8298 87.2584 11.1898C88.0317 11.5498 88.6316 12.0631 89.0584 12.7297C89.485 13.3964 89.725 14.2031 89.7784 15.1497C89.7916 15.4031 89.7984 15.7031 89.7984 16.0497C89.7984 16.3831 89.7916 16.6831 89.7784 16.9497C89.725 17.8831 89.4916 18.6897 89.0784 19.3697C88.6784 20.0364 88.0916 20.5497 87.3184 20.9097C86.5584 21.2697 85.6116 21.4497 84.4784 21.4497ZM84.4784 19.0097C85.0784 19.0097 85.5116 18.8297 85.7784 18.4697C86.0584 18.1097 86.2184 17.5697 86.2584 16.8497C86.2716 16.6497 86.2784 16.3831 86.2784 16.0497C86.2784 15.7164 86.2716 15.4497 86.2584 15.2497C86.2184 14.5431 86.0584 14.0097 85.7784 13.6497C85.5116 13.2764 85.0784 13.0897 84.4784 13.0897C83.8916 13.0897 83.4584 13.2764 83.1784 13.6497C82.8984 14.0097 82.745 14.5431 82.7184 15.2497C82.705 15.4497 82.6984 15.7164 82.6984 16.0497C82.6984 16.3831 82.705 16.6497 82.7184 16.8497C82.745 17.5697 82.8984 18.1097 83.1784 18.4697C83.4584 18.8297 83.8916 19.0097 84.4784 19.0097ZM91.8654 21.2497C91.7188 21.2497 91.5988 21.2031 91.5054 21.1097C91.412 21.0164 91.3654 20.8964 91.3654 20.7497V11.3498C91.3654 11.2031 91.412 11.0831 91.5054 10.9898C91.5988 10.8965 91.7188 10.8498 91.8654 10.8498H94.1654C94.312 10.8498 94.432 10.8965 94.5254 10.9898C94.6188 11.0831 94.6654 11.2031 94.6654 11.3498V12.1098C95.012 11.6965 95.4654 11.3498 96.0254 11.0698C96.5854 10.7898 97.2454 10.6498 98.0054 10.6498C98.7788 10.6498 99.4588 10.8231 100.045 11.1698C100.645 11.5165 101.112 12.0298 101.445 12.7097C101.792 13.3764 101.965 14.1964 101.965 15.1697V20.7497C101.965 20.8964 101.912 21.0164 101.805 21.1097C101.712 21.2031 101.599 21.2497 101.465 21.2497H98.9454C98.812 21.2497 98.692 21.2031 98.5854 21.1097C98.492 21.0164 98.4454 20.8964 98.4454 20.7497V15.2897C98.4454 14.6631 98.292 14.1831 97.9854 13.8497C97.692 13.5031 97.252 13.3297 96.6654 13.3297C96.1188 13.3297 95.6788 13.5031 95.3454 13.8497C95.0254 14.1831 94.8654 14.6631 94.8654 15.2897V20.7497C94.8654 20.8964 94.812 21.0164 94.7054 21.1097C94.612 21.2031 94.4988 21.2497 94.3654 21.2497H91.8654Z" fill="#F2F2F2"/>
<path d="M54.8366 21.4498C54.1166 21.4498 53.47 21.3164 52.8966 21.0498C52.3366 20.7698 51.89 20.3964 51.5566 19.9298C51.2233 19.4631 51.0566 18.9364 51.0566 18.3498C51.0566 17.4031 51.4433 16.6564 52.2166 16.1098C52.99 15.5498 54.0166 15.1698 55.2966 14.9698L57.7966 14.5898V14.3098C57.7966 13.8298 57.6966 13.4631 57.4966 13.2098C57.2966 12.9564 56.93 12.8298 56.3966 12.8298C56.0233 12.8298 55.7166 12.9031 55.4766 13.0498C55.25 13.1964 55.07 13.3964 54.9366 13.6498C54.8166 13.8231 54.65 13.9098 54.4366 13.9098H52.1966C52.05 13.9098 51.9366 13.8698 51.8566 13.7898C51.7766 13.6964 51.7433 13.5898 51.7566 13.4698C51.7566 13.2298 51.8433 12.9564 52.0166 12.6498C52.2033 12.3298 52.4833 12.0165 52.8566 11.7098C53.23 11.4031 53.71 11.1498 54.2966 10.9498C54.8833 10.7498 55.59 10.6498 56.4166 10.6498C57.2833 10.6498 58.0233 10.7498 58.6366 10.9498C59.25 11.1498 59.7433 11.4298 60.1166 11.7898C60.5033 12.1498 60.79 12.5764 60.9766 13.0698C61.1633 13.5498 61.2566 14.0831 61.2566 14.6698V20.7498C61.2566 20.8964 61.2033 21.0164 61.0966 21.1098C61.0033 21.2031 60.89 21.2498 60.7566 21.2498H58.4366C58.29 21.2498 58.17 21.2031 58.0766 21.1098C57.9833 21.0164 57.9366 20.8964 57.9366 20.7498V20.0498C57.7633 20.3031 57.53 20.5364 57.2366 20.7498C56.9433 20.9631 56.5966 21.1298 56.1966 21.2498C55.81 21.3831 55.3566 21.4498 54.8366 21.4498ZM55.7766 19.1698C56.1633 19.1698 56.51 19.0898 56.8166 18.9298C57.1366 18.7564 57.3833 18.4964 57.5566 18.1498C57.7433 17.7898 57.8366 17.3431 57.8366 16.8098V16.5298L56.1366 16.8298C55.51 16.9364 55.05 17.1031 54.7566 17.3298C54.4766 17.5431 54.3366 17.7964 54.3366 18.0898C54.3366 18.3164 54.4033 18.5098 54.5366 18.6698C54.67 18.8298 54.8433 18.9564 55.0566 19.0498C55.27 19.1298 55.51 19.1698 55.7766 19.1698ZM63.6135 21.2498C63.4669 21.2498 63.3469 21.2031 63.2535 21.1098C63.1601 21.0164 63.1135 20.8964 63.1135 20.7498V11.3498C63.1135 11.2031 63.1601 11.0831 63.2535 10.9898C63.3469 10.8965 63.4669 10.8498 63.6135 10.8498H65.9735C66.1069 10.8498 66.2201 10.8965 66.3135 10.9898C66.4201 11.0831 66.4735 11.2031 66.4735 11.3498V20.7498C66.4735 20.8964 66.4201 21.0164 66.3135 21.1098C66.2201 21.2031 66.1069 21.2498 65.9735 21.2498H63.6135ZM63.5935 9.3498C63.4469 9.3498 63.3269 9.30314 63.2335 9.2098C63.1401 9.11647 63.0935 8.99647 63.0935 8.8498V7.0698C63.0935 6.92314 63.1401 6.80314 63.2335 6.7098C63.3269 6.60314 63.4469 6.5498 63.5935 6.5498H65.9735C66.1201 6.5498 66.2401 6.60314 66.3335 6.7098C66.4401 6.80314 66.4935 6.92314 66.4935 7.0698V8.8498C66.4935 8.99647 66.4401 9.11647 66.3335 9.2098C66.2401 9.30314 66.1201 9.3498 65.9735 9.3498H63.5935Z" fill="#CCCCCC"/>
</g>
<defs>
<clipPath id="clip0_2769_41580">
<rect width="102.5" height="30" fill="white" transform="translate(0.710938)"/>
</clipPath>
</defs>
</svg>
