<svg width="119" height="26" viewBox="0 0 119 26" fill="none" xmlns="http://www.w3.org/2000/svg">
<g clip-path="url(#clip0_2769_41508)">
<mask id="mask0_2769_41508" style="mask-type:luminance" maskUnits="userSpaceOnUse" x="0" y="0" width="118" height="26">
<path d="M117.736 0H0.0488281V26H117.736V0Z" fill="white"/>
</mask>
<g mask="url(#mask0_2769_41508)">
<path d="M33.5 3.31632H38.7617L43.2252 14.2013H43.4312L47.8946 3.31632H53.1563V20.8971H49.0191V10.0979H48.8732L44.6501 20.7855H42.0063L37.7832 10.0379H37.6373V20.8971H33.5V3.31632ZM54.8396 20.8971V7.71147H59.0373V20.8971H54.8396ZM56.9424 6.17491C56.3532 6.17491 55.8467 5.98034 55.4234 5.5912C55.0002 5.19629 54.788 4.72129 54.788 4.16617C54.788 3.61677 55.0002 3.14749 55.4234 2.75833C55.8467 2.36345 56.3532 2.16602 56.9424 2.16602C57.5376 2.16602 58.0442 2.36345 58.462 2.75833C58.8853 3.14749 59.0969 3.61677 59.0969 4.16617C59.0969 4.72129 58.8853 5.19629 58.462 5.5912C58.0442 5.98034 57.5376 6.17491 56.9424 6.17491ZM64.9394 13.3772V20.8971H60.7417V7.71147H64.7332V10.1323H64.8793C65.1711 9.32536 65.669 8.69297 66.3722 8.23511C67.0768 7.7716 67.9145 7.53981 68.8875 7.53981C69.8143 7.53981 70.6183 7.74872 71.2994 8.16647C71.9864 8.57851 72.5187 9.15655 72.8963 9.90054C73.2798 10.6388 73.4689 11.5029 73.4631 12.493V20.8971H69.2658V13.3171C69.271 12.5845 69.0851 12.0123 68.7075 11.6002C68.3351 11.1882 67.8177 10.9821 67.1535 10.9821C66.7128 10.9821 66.3241 11.0794 65.9862 11.274C65.6541 11.4629 65.3973 11.7347 65.214 12.0895C65.0367 12.4443 64.9448 12.8736 64.9394 13.3772ZM82.5369 7.71147V10.8019H74.219V7.71147H82.5369ZM75.9615 4.55246H80.1588V16.7508C80.1588 17.0084 80.1991 17.2173 80.279 17.3775C80.3648 17.532 80.4883 17.6436 80.6482 17.7123C80.8081 17.7752 80.9998 17.8068 81.2234 17.8068C81.3833 17.8068 81.5522 17.7924 81.7297 17.7638C81.9123 17.7295 82.0501 17.7009 82.1417 17.678L82.7767 20.7082C82.5766 20.7655 82.2932 20.837 81.9273 20.9228C81.5665 21.0087 81.135 21.063 80.6306 21.0859C79.6466 21.1317 78.8024 21.0172 78.0991 20.7426C77.4004 20.4621 76.8655 20.0272 76.4938 19.4377C76.1278 18.8483 75.9504 18.1072 75.9615 17.2144V4.55246ZM88.1914 3.31632V20.8971H83.9947V3.31632H88.1914ZM89.8968 20.8971V7.71147H94.0935V20.8971H89.8968ZM91.9994 6.17491C91.4106 6.17491 90.9036 5.98034 90.4805 5.5912C90.0567 5.19629 89.8448 4.72129 89.8448 4.16617C89.8448 3.61677 90.0567 3.14749 90.4805 2.75833C90.9036 2.36345 91.4106 2.16602 91.9994 2.16602C92.5947 2.16602 93.101 2.36345 93.519 2.75833C93.9421 3.14749 94.1539 3.61677 94.1539 4.16617C94.1539 4.72129 93.9421 5.19629 93.519 5.5912C93.101 5.98034 92.5947 6.17491 91.9994 6.17491ZM103.292 7.71147V10.8019H94.8117V7.71147H103.292ZM96.5795 20.8971V7.04191C96.5795 6.02326 96.7713 5.17912 97.1547 4.50955C97.5382 3.83424 98.0711 3.33063 98.7516 2.9987C99.4328 2.66104 100.219 2.49222 101.112 2.49222C101.696 2.49222 102.245 2.538 102.76 2.62957C103.281 2.71542 103.667 2.79267 103.919 2.86135L103.249 5.93457C103.095 5.88305 102.906 5.84013 102.682 5.8058C102.465 5.77142 102.259 5.75429 102.065 5.75429C101.572 5.75429 101.235 5.86301 101.052 6.08047C100.868 6.29797 100.777 6.59555 100.777 6.97327V20.8971H96.5795ZM106.911 25.8417C106.408 25.8417 105.932 25.8016 105.486 25.7215C105.04 25.6471 104.657 25.5469 104.336 25.421L105.263 22.3736C105.675 22.511 106.047 22.5911 106.379 22.614C106.717 22.6368 107.006 22.5825 107.246 22.4509C107.492 22.325 107.681 22.0989 107.812 21.7727L107.976 21.3778L103.289 7.71147H107.684L110.113 17.12H110.25L112.714 7.71147H117.134L112.164 22.159C111.924 22.8801 111.583 23.5153 111.143 24.0648C110.708 24.6198 110.144 25.0548 109.452 25.3695C108.765 25.6843 107.918 25.8417 106.911 25.8417Z" fill="white"/>
<mask id="mask1_2769_41508" style="mask-type:luminance" maskUnits="userSpaceOnUse" x="0" y="0" width="26" height="26">
<path d="M25.6714 0.429688H0.425781V25.6776H25.6714V0.429688Z" fill="white"/>
</mask>
<g mask="url(#mask1_2769_41508)">
<path d="M7.07786 9.64201C7.09554 7.23766 8.04887 4.93478 9.73592 3.22168H9.73287L3.21977 9.73528H3.22288C3.19864 9.75439 3.17578 9.77513 3.15449 9.79749C1.57052 11.3795 0.610191 13.4798 0.449722 15.7129C0.289254 17.9459 0.939424 20.1619 2.2809 21.9542L8.85922 15.3753L8.92759 15.31C7.70154 13.6771 7.05108 11.6839 7.07786 9.64201Z" fill="#8F8F8F"/>
<path d="M22.8929 16.3828C21.6464 17.6046 20.0816 18.4514 18.377 18.8269C16.6726 19.2024 14.8968 19.0913 13.2524 18.5064C12.3756 18.1951 11.5516 17.7516 10.8088 17.1912L10.7404 17.2596L4.16211 23.8355C5.95498 25.1737 8.16953 25.8219 10.401 25.6614C12.6325 25.501 14.7315 24.5427 16.3146 22.9617L16.3798 22.8965L22.8929 16.3828Z" fill="#8F8F8F"/>
<path d="M25.6849 9.73531V0.859446C25.6849 0.622099 25.4925 0.429692 25.2553 0.429692H16.3802C15.1581 0.428468 13.9479 0.668723 12.819 1.13666C11.6901 1.60459 10.6647 2.29098 9.80188 3.1564L9.73656 3.2217C8.59923 4.37646 7.78544 5.81002 7.37695 7.3786C8.11646 7.18711 8.87637 7.08584 9.64018 7.07707C11.682 7.05295 13.6744 7.70445 15.3076 8.93009C16.7755 10.0248 17.8864 11.5296 18.5004 13.2549C19.1261 15.0182 19.2085 16.9288 18.7367 18.7394C20.3054 18.3316 21.739 17.5176 22.8932 16.3795L22.9585 16.3173C23.8242 15.454 24.5108 14.4281 24.9787 13.2985C25.4466 12.169 25.6866 10.958 25.6849 9.73531Z" fill="white"/>
</g>
</g>
</g>
<defs>
<clipPath id="clip0_2769_41508">
<rect width="118.289" height="26" fill="white" transform="translate(0.0488281)"/>
</clipPath>
</defs>
</svg>
