<svg width="122" height="30" viewBox="0 0 122 30" fill="none" xmlns="http://www.w3.org/2000/svg">
<g clip-path="url(#clip0_2769_41591)">
<mask id="mask0_2769_41591" style="mask-type:luminance" maskUnits="userSpaceOnUse" x="0" y="0" width="122" height="30">
<path d="M121.684 0H0.5V30H121.684V0Z" fill="white"/>
</mask>
<g mask="url(#mask0_2769_41591)">
<mask id="mask1_2769_41591" style="mask-type:luminance" maskUnits="userSpaceOnUse" x="0" y="0" width="122" height="30">
<path d="M121.59 0H0.5V30H121.59V0Z" fill="white"/>
</mask>
<g mask="url(#mask1_2769_41591)">
<path fill-rule="evenodd" clip-rule="evenodd" d="M51.8646 13.7521C52.137 13.118 53.4038 11.3985 55.5758 11.3982C56.8425 11.3983 57.7477 11.7602 58.4712 12.3942C59.2857 13.1192 59.6475 14.3864 59.6475 16.0153V22.8942H56.3883V16.1955C56.3883 14.7469 55.6646 13.9324 54.3067 13.9324C53.583 13.9324 52.9489 14.0231 52.587 14.2942C52.0435 14.6561 51.7725 15.2903 51.7725 16.1048V22.8942H48.6041L48.5659 7.0166H51.7199L51.7738 14.0231L51.8646 13.7521ZM9.0092 11.2561H9.00793H8.91845V12.8851L8.82763 12.7035C8.46583 12.1601 7.37895 11.1653 5.56842 11.1653C4.3921 11.1653 3.125 11.618 2.21973 12.5232C1.49605 13.2469 0.5 14.6048 0.5 16.9587C0.5 21.2126 3.57763 22.7521 5.65921 22.7521C6.47368 22.7521 7.65 22.5705 8.46583 21.5758C8.60413 21.4375 8.68902 21.2471 8.76178 21.0841C8.7845 21.0332 8.80603 20.9848 8.82763 20.9416V22.2995C8.82763 23.2047 8.64605 23.8376 8.19343 24.2903C7.74079 24.7429 7.0171 25.0139 5.93026 25.0139C4.3921 25.0139 3.57631 24.4706 3.03421 23.9271V23.8364H2.94342L1.13289 24.9232L1.04211 25.0139L1.13289 25.1048C1.94737 26.5535 3.93948 27.4587 6.29211 27.4587C7.28816 27.4587 8.64605 27.2771 9.82235 26.6442C11.3605 25.8297 12.0856 24.3811 12.0856 22.3903V11.2561H11.9947H9.0092ZM9.10003 17.0495C9.10003 18.1364 8.82897 18.9508 8.37635 19.5837C7.92369 20.1271 7.28947 20.3981 6.56579 20.3981C4.93684 20.3981 4.03158 19.1311 4.03158 17.0495C4.03158 14.9679 5.02763 13.7903 6.56579 13.7903C7.28947 13.7903 7.92369 14.0613 8.37635 14.6048C8.82897 15.0574 9.10003 15.9626 9.10003 17.0482V17.0495ZM21.813 11.3074H21.7222V18.0968C21.6315 18.8205 20.817 20.2692 19.188 20.2692C17.8301 20.2692 17.1064 19.4548 17.1064 18.0061V11.2166H17.0157L14.2998 11.3074H14.2091V18.1863C14.2091 19.7245 14.5709 20.9021 15.2051 21.7166C15.9289 22.5311 16.9249 22.8929 18.2828 22.8929C18.917 22.8929 19.5499 22.7114 20.184 22.4403C21.0894 21.8969 21.8131 20.9916 22.0854 19.9969V22.7126H24.8919V11.3074H21.8143H21.813ZM30.2314 13.9324C30.5933 12.3035 31.8604 11.3075 33.6709 11.3075C33.8525 11.3075 34.1233 11.3076 34.5749 11.3982H34.6656V14.114H33.942C31.6788 14.114 30.4117 14.9285 30.1407 16.739V22.8942H26.9722V11.3982H30.1407V14.385L30.2314 13.9324ZM43.3564 11.3074V18.0968C43.2657 18.8205 42.4512 20.2692 40.8223 20.2692C39.4644 20.2692 38.7406 19.4548 38.7406 18.0061V11.2166H38.6499L35.9341 11.3074H35.8433V18.1863C35.8433 19.7245 36.2051 20.9021 36.8394 21.7166C37.563 22.5311 38.5591 22.8929 39.917 22.8929C41.9986 22.8929 43.2657 21.3548 43.6288 20.539L43.7196 20.2679V22.7114H46.6156V22.6205L46.5249 11.306H43.3564V11.3074ZM66.5289 11.1257C64.5381 11.1257 60.8263 12.3929 60.8263 17.01C60.8263 18.9113 61.4605 20.4495 62.7276 21.5363C63.7236 22.3508 65.0816 22.8942 66.4395 22.8942C67.7973 22.8942 69.1552 22.4416 70.1513 21.5363C71.4184 20.4495 72.0526 18.9113 72.0526 17.01C72.1435 12.3941 68.4315 11.1257 66.5316 11.1257H66.5289ZM68.9896 17.1659C68.9895 18.2695 68.7132 19.0957 68.254 19.7403C67.7947 20.2916 67.15 20.5679 66.4145 20.5679C64.7593 20.5679 63.8394 19.2811 63.8394 17.1666C63.8394 15.0521 64.8513 13.856 66.4145 13.856C67.15 13.856 67.7934 14.1324 68.254 14.6837C68.7132 15.1428 68.9895 16.0622 68.9896 17.1659ZM77.0285 19.1824C77.0285 19.9969 77.4815 20.3587 78.296 20.3587L78.2975 20.3627C78.5698 20.3627 78.9313 20.2718 79.2935 20.1811H79.3842V22.6245H79.2935C78.8405 22.8047 78.1168 22.8956 77.3923 22.8956C76.667 22.8956 75.7632 22.8047 75.1288 22.2614C74.4038 21.8087 74.042 20.8127 74.042 19.4548V13.6613H72.413V11.1271H74.042V9.32708L77.0285 8.95471V11.1271H79.1105V13.6613H77.0285V19.1824ZM85.7188 10.9455C84.1805 10.9455 82.8223 11.3981 81.8262 12.3034C80.5595 13.3903 79.925 15.0192 79.925 16.9192C79.925 19.9061 81.7355 22.8929 85.7188 22.8929C88.5253 22.8929 90.245 21.806 90.9688 19.5442V19.4534H88.1623V19.5442C87.8 20.2679 87.0755 20.5403 85.8988 20.5403C84.179 20.5403 83.2738 19.7258 83.0923 17.9153V17.8245H91.3288V17.2811C91.3288 13.2074 89.2475 10.9442 85.7173 10.9442L85.7188 10.9455ZM85.7188 13.1179C87.167 13.1179 88.1623 14.114 88.1623 15.6521V15.7429H83.0938V15.6521C83.3645 14.0231 84.2698 13.1179 85.7188 13.1179ZM93.6882 7.11785L95.63 7.14154L95.639 22.8047V22.8916H95.5482L92.6525 22.8929L92.5618 22.8942V22.8074L92.5115 7.11785H93.6882Z" fill="white"/>
<path d="M111.063 27.6004H102.609L103.531 2.40039H111.063V27.6004Z" fill="white"/>
<path d="M112.742 0V30L121.591 27.6V2.4L112.742 0ZM115.801 17.1579L115.012 17.2895V12.6842L115.801 12.8158V17.1579Z" fill="white"/>
</g>
</g>
</g>
<defs>
<clipPath id="clip0_2769_41591">
<rect width="121.5" height="30" fill="white" transform="translate(0.5)"/>
</clipPath>
</defs>
</svg>
