<svg width="117" height="30" viewBox="0 0 117 30" fill="none" xmlns="http://www.w3.org/2000/svg">
<path d="M35.9824 23.9936H38.5848V17.0215H43.0325C46.2264 17.0215 48.5686 15.5309 48.5686 11.9246C48.5686 8.31837 46.2264 6.80371 43.0325 6.80371H35.9824V23.9936ZM38.5848 14.7375V9.08768H42.9142C44.8779 9.08768 45.8715 9.97722 45.8715 11.9246C45.8715 13.848 44.8779 14.7375 42.9142 14.7375H38.5848ZM53.0791 24.3302C55.0428 24.3302 56.415 23.5368 57.1957 22.2626H57.243C57.3849 23.657 58 24.1138 59.1593 24.1138C59.5378 24.1138 59.94 24.0657 60.3422 23.9696V22.527C60.2002 22.5511 60.1293 22.5511 60.0583 22.5511C59.6088 22.5511 59.4905 22.0943 59.4905 21.2048V15.579C59.4905 12.4055 57.5032 11.3476 55.0191 11.3476C51.3284 11.3476 49.8143 13.1989 49.6961 15.555H52.0619C52.1802 13.9201 52.8189 13.2469 54.9245 13.2469C56.6989 13.2469 57.2193 13.9922 57.2193 14.8818C57.2193 16.0838 56.0601 16.3243 54.1675 16.6849C51.1628 17.2619 49.1282 18.0793 49.1282 20.8201C49.1282 22.9118 50.666 24.3302 53.0791 24.3302ZM51.5414 20.6518C51.5414 19.3776 52.4404 18.7765 54.5696 18.3438C55.7998 18.0793 56.8408 17.8148 57.2193 17.4542V19.2093C57.2193 21.349 55.6815 22.4309 53.5996 22.4309C52.1565 22.4309 51.5414 21.8058 51.5414 20.6518ZM63.5035 28.2971C65.3726 28.2971 66.5318 27.3114 67.6911 24.2821L72.4697 11.7323H70.0332L66.7211 21.1086H66.6737L63.1487 11.7323H60.6173L65.4908 23.8734C65.0177 25.7967 63.9294 26.2776 63.0067 26.2776C62.6282 26.2776 62.4153 26.2535 62.0131 26.2055V28.1288C62.6282 28.249 62.9831 28.2971 63.5035 28.2971ZM73.8867 23.9936H76.2052V6.80371H73.8867V23.9936ZM84.2019 24.3542C87.9633 24.3542 90.2343 21.6856 90.2343 17.8389C90.2343 14.0162 87.9633 11.3476 84.2257 11.3476C80.4405 11.3476 78.1688 14.0403 78.1688 17.863C78.1688 21.7096 80.4405 24.3542 84.2019 24.3542ZM80.5823 17.863C80.5823 15.2904 81.7178 13.3191 84.2257 13.3191C86.686 13.3191 87.8215 15.2904 87.8215 17.863C87.8215 20.4114 86.686 22.4069 84.2257 22.4069C81.7178 22.4069 80.5823 20.4114 80.5823 17.863ZM95.5438 24.3302C97.5073 24.3302 98.8797 23.5368 99.6602 22.2626H99.7078C99.8496 23.657 100.465 24.1138 101.624 24.1138C102.003 24.1138 102.404 24.0657 102.807 23.9696V22.527C102.665 22.5511 102.594 22.5511 102.523 22.5511C102.073 22.5511 101.955 22.0943 101.955 21.2048V15.579C101.955 12.4055 99.9677 11.3476 97.4836 11.3476C93.7927 11.3476 92.2792 13.1989 92.1604 15.555H94.5264C94.6445 13.9201 95.2832 13.2469 97.3893 13.2469C99.1634 13.2469 99.684 13.9922 99.684 14.8818C99.684 16.0838 98.5248 16.3243 96.6318 16.6849C93.6271 17.2619 91.593 18.0793 91.593 20.8201C91.593 22.9118 93.1303 24.3302 95.5438 24.3302ZM94.0058 20.6518C94.0058 19.3776 94.9052 18.7765 97.0343 18.3438C98.2641 18.0793 99.3053 17.8148 99.684 17.4542V19.2093C99.684 21.349 98.146 22.4309 96.0644 22.4309C94.6207 22.4309 94.0058 21.8058 94.0058 20.6518ZM109.463 24.3302C111.356 24.3302 112.516 23.4166 113.178 22.5511H113.225V23.9936H115.543V6.80371H113.225V13.2229H113.178C112.516 12.2612 111.356 11.3716 109.463 11.3716C106.388 11.3716 104.046 13.824 104.046 17.863C104.046 21.902 106.388 24.3302 109.463 24.3302ZM106.459 17.863C106.459 15.4587 107.571 13.3431 109.842 13.3431C111.924 13.3431 113.202 15.0741 113.202 17.863C113.202 20.6277 111.924 22.3828 109.842 22.3828C107.571 22.3828 106.459 20.2671 106.459 17.863Z" fill="white"/>
<mask id="mask0_2769_41521" style="mask-type:luminance" maskUnits="userSpaceOnUse" x="0" y="0" width="27" height="30">
<path d="M26.9882 0.668945H0.244141V29.9372H26.9882V0.668945Z" fill="white"/>
</mask>
<g mask="url(#mask0_2769_41521)">
<mask id="mask1_2769_41521" style="mask-type:luminance" maskUnits="userSpaceOnUse" x="4" y="0" width="19" height="28">
<path d="M22.9767 0.668945H4.25586V27.0104H22.9767V0.668945Z" fill="white"/>
</mask>
<g mask="url(#mask1_2769_41521)">
<path d="M12.8401 2.39648L23.1682 9.19066V22.0865L15.3912 27.0101V14.1143L5.05078 7.32912L12.8401 2.39648Z" fill="white"/>
<path d="M12.0493 26.2955V16.2324L4.25586 21.1651L12.0493 26.2955Z" fill="white"/>
</g>
</g>
</svg>
