<svg width="143" height="30" viewBox="0 0 143 30" fill="none" xmlns="http://www.w3.org/2000/svg">
<g clip-path="url(#clip0_2769_41472)">
<mask id="mask0_2769_41472" style="mask-type:luminance" maskUnits="userSpaceOnUse" x="0" y="0" width="143" height="30">
<path d="M142.457 0H0V29.7805H142.457V0Z" fill="white"/>
</mask>
<g mask="url(#mask0_2769_41472)">
<path d="M60.3354 15.6318V10.8095C60.6263 10.8095 61.2163 10.8095 61.4692 10.8095C62.8048 10.8095 63.417 11.4098 63.417 12.2841C63.417 14.1344 60.3354 15.6318 60.3354 15.6318ZM65.7942 12.0703C65.7942 9.60299 63.6644 8.58691 60.916 8.58691H57.958V21.5519H60.3354V18.4478C60.7103 18.155 61.4196 17.691 62.0988 17.2011L64.1415 21.5519H66.6421L63.945 15.6799C64.9692 14.6753 65.7942 13.4631 65.7942 12.0703Z" fill="white"/>
<path d="M90.875 15.6318V10.8095C91.1656 10.8095 91.7554 10.8095 92.0084 10.8095C93.3438 10.8095 93.9565 11.4098 93.9565 12.2841C93.9565 14.1344 90.875 15.6318 90.875 15.6318ZM96.3335 12.0703C96.3335 9.60299 94.2039 8.58691 91.4553 8.58691H88.4971V21.5519H90.875V18.4478C91.2495 18.155 91.9587 17.691 92.6381 17.2011L94.6808 21.5519H97.1811L94.4841 15.6799C95.5087 14.6753 96.3335 13.4631 96.3335 12.0703Z" fill="white"/>
<path d="M114.349 15.6318V10.8095C114.639 10.8095 115.229 10.8095 115.482 10.8095C116.817 10.8095 117.43 11.4098 117.43 12.2841C117.43 14.1344 114.349 15.6318 114.349 15.6318ZM119.807 12.0703C119.807 9.60299 117.678 8.58691 114.929 8.58691H111.971V21.5519H114.349V18.4478C114.723 18.155 115.433 17.691 116.112 17.2011L118.154 21.5519H120.655L117.958 15.6799C118.982 14.6753 119.807 13.4631 119.807 12.0703Z" fill="white"/>
<path d="M44.2556 21.5519L47.3544 8.58691H44.96L43.111 17.4771H43.0404L41.0862 8.58691H39.1137L37.1416 17.4771H37.0712L35.2574 8.58691H32.8096L35.909 21.5519H38.1629L40.0645 13.0319H40.1175L42.019 21.5519H44.2556Z" fill="white"/>
<path d="M50.4452 16.6434L51.6939 11.5498H51.748L53.0157 16.6434H50.4452ZM50.4452 8.58691L46.7471 21.5519H49.2467L50.0045 18.589H53.4561L54.2121 21.5519H56.6968L53.0512 8.58691H50.4452Z" fill="white"/>
<path d="M74.5006 16.4584L69.8876 8.58694H67.8975V21.5519H70.2747V13.6805H70.3625L74.9763 21.5519H76.9658V8.58691H74.5891V16.4583L74.5006 16.4584Z" fill="white"/>
<path d="M86.7377 19.2367H81.8081V15.9955H85.5057V13.8653H81.8081V10.9021H86.5623V8.58691H79.4307V21.5518H86.7377V19.2367Z" fill="white"/>
<path d="M125.793 10.6262C127.555 10.6262 128.071 12.8763 128.071 15.0715C128.071 17.2647 127.555 19.5164 125.793 19.5164C124.033 19.5164 123.518 17.2647 123.518 15.0715C123.518 12.8763 124.033 10.6262 125.793 10.6262ZM125.793 21.8315C128.962 21.8315 130.446 18.6764 130.446 15.0715C130.446 11.4704 128.962 8.30957 125.793 8.30957C122.624 8.30957 121.14 11.4704 121.14 15.0715C121.14 18.6764 122.624 21.8315 125.793 21.8315Z" fill="white"/>
<path d="M135.942 14.0515C134.973 13.4034 133.995 12.9406 133.995 11.8292C133.995 11.0879 134.621 10.5324 135.325 10.5324C136.118 10.5324 136.92 11.0879 137.183 11.5512L138.681 10.0692C137.976 9.05037 136.734 8.30957 135.237 8.30957C133.036 8.30957 131.618 9.6985 131.618 11.8292C131.618 14.1442 133.213 15.163 134.498 15.941C135.502 16.5519 136.48 17.0156 136.48 18.1266C136.48 19.0532 135.678 19.6086 134.797 19.6086C133.917 19.6086 133.027 19.0532 132.499 18.2193L131.09 19.7013C131.882 20.9976 133.477 21.8315 134.885 21.8315C137.087 21.8315 138.857 20.3494 138.857 18.1266C138.857 15.8116 137.21 14.8854 135.942 14.0515Z" fill="white"/>
<path d="M141.136 18.96C140.344 18.96 139.815 19.6081 139.815 20.3489C139.815 21.0899 140.344 21.738 141.136 21.738C141.929 21.738 142.457 21.0899 142.457 20.3489C142.457 19.6081 141.929 18.96 141.136 18.96Z" fill="white"/>
<path d="M104.382 19.2556V16.5552C105.158 16.2296 106.018 15.806 106.806 15.2848C107.175 15.5443 107.994 16.2274 107.994 17.1843C107.994 18.4498 106.893 19.2041 104.382 19.2556ZM104.382 10.7518C104.676 10.7518 105.233 10.7518 105.537 10.7518C106.628 10.7518 107.187 11.0527 107.187 11.7021C107.187 12.8707 104.853 13.9141 104.382 14.1129V10.7518ZM108.401 13.9375C109.039 13.2159 109.456 12.3805 109.456 11.4315C109.456 9.57535 107.949 8.61033 105.786 8.58691H102.004V21.5519H104.382C108.253 21.4322 110.248 19.783 110.248 17.2804C110.248 15.4243 108.762 14.2063 108.401 13.9375Z" fill="white"/>
<path d="M26.7979 9.70713C26.6168 11.0974 26.0057 15.6827 22.8823 20.1705C19.7136 24.8046 15.5716 27.0485 14.3041 27.7314C13.0593 27.0485 8.8947 24.8046 5.72599 20.1705C2.62519 15.7071 2.01408 11.1218 1.83301 9.70713L3.7116 8.60957V7.09737L5.59019 5.99981V4.48762C8.17042 3.14615 11.0223 2.29249 14.3041 1.80469C17.586 2.2681 20.4378 3.14615 23.0181 4.48762V5.99981L24.8967 7.09737V8.60957L26.7979 9.70713Z" fill="black"/>
<path d="M26.5945 7.53658V6.02439L24.7159 4.92683V3.34146L23.7653 2.85366C21.0266 1.46341 18.0163 0.536585 14.5308 0.0243902L14.3044 0L14.0781 0.0243902C10.6152 0.536585 7.58226 1.46341 4.86622 2.87805L3.91561 3.36585V4.95122L2.03702 6.02439V7.53658L0 8.70732L0.158435 9.95122C0.701642 14.1463 2.12756 17.9512 4.39092 21.2439C6.67691 24.5854 9.75508 27.3171 13.5575 29.3659L14.3044 29.7805L15.0513 29.3659C18.8538 27.3171 21.932 24.5854 24.218 21.2439C26.4813 17.9512 27.9072 14.1463 28.4504 9.95122L28.6089 8.70732L26.5945 7.53658ZM26.7982 9.70732C26.6171 11.0976 26.006 15.6829 22.8826 20.1707C19.7139 24.8049 15.5719 27.0488 14.3044 27.7317C13.0596 27.0488 8.895 24.8049 5.7263 20.1707C2.6255 15.7073 2.01439 11.122 1.83332 9.70732L3.71191 8.60976V7.09756L5.5905 6V4.4878C8.17073 3.14634 11.0226 2.29268 14.3044 1.80488C17.5863 2.26829 20.4381 3.14634 23.0184 4.4878V6L24.897 7.09756V8.60976L26.7982 9.70732Z" fill="white"/>
<path d="M11.5204 5.46351L11.6109 17.7806L11.5204 17.8294C10.3208 14.5367 9.59653 10.4391 9.3702 6.31717C8.78172 6.60985 8.14798 6.95131 7.49161 7.39034C7.76321 11.122 8.35168 14.3903 9.41546 17.5123L8.80436 17.8781C7.19737 15.4635 6.15622 12.5367 5.45458 9.04888C4.95664 9.53668 4.48134 10.0733 3.9834 10.6586C4.91138 14.8294 6.40519 18.0001 8.55539 20.5611L10.2076 19.4879C11.0224 21.3172 12.1541 23.122 13.4216 24.561V5.09766C12.7879 5.17083 12.1541 5.29278 11.5204 5.46351ZM22.2034 11.8294C22.8825 11.0245 23.0183 10.4391 23.0183 9.7318C23.0183 8.7318 22.2487 7.82936 21.117 7.04888C20.438 6.58546 19.3969 6.02449 17.8804 5.56107C17.0204 5.31717 16.0924 5.14644 15.1644 5.12205V24.6098C18.9668 22.5123 23.4709 16.7318 23.4936 13.7806C23.5388 12.8781 23.1088 12.2928 22.2034 11.8294ZM17.0656 7.43912C17.9936 7.43912 21.0265 8.46351 21.0265 9.78058C21.0265 10.244 20.6417 10.9269 19.4421 11.6099L17.0656 12.9757V7.43912ZM19.4195 18.244C18.8763 18.9025 18.0162 19.9269 17.0656 20.7074V15.122C17.0656 15.122 20.5059 13.0489 20.6191 12.9513C21.6376 13.244 21.5923 14.0489 21.5923 14.122C21.5923 15.1464 20.6191 16.7318 19.4195 18.244Z" fill="white"/>
</g>
</g>
<defs>
<clipPath id="clip0_2769_41472">
<rect width="142.592" height="30" fill="white"/>
</clipPath>
</defs>
</svg>
