<svg width="75" height="30" viewBox="0 0 75 30" fill="none" xmlns="http://www.w3.org/2000/svg">
<g clip-path="url(#clip0_2769_41491)">
<mask id="mask0_2769_41491" style="mask-type:luminance" maskUnits="userSpaceOnUse" x="0" y="0" width="75" height="30">
<path d="M74.4878 0H0.49707V30H74.4878V0Z" fill="white"/>
</mask>
<g mask="url(#mask0_2769_41491)">
<path d="M63.9406 17.2263L57.6055 6.72266H62.5243L66.0112 13.8618L69.462 6.72266H74.4169L68.0232 17.2263V23.0556C68.0223 23.4033 67.8837 23.7366 67.6378 23.9826C67.392 24.2285 67.0588 24.3671 66.711 24.3681H63.9406V17.2263Z" fill="white"/>
<path d="M45.0961 6.72268H55.6731V8.95782C55.6731 9.3059 55.5349 9.63965 55.2888 9.8858C55.0426 10.1319 54.7089 10.2702 54.361 10.2702H47.6794V13.8777H54.6133V15.9138C54.6124 16.2617 54.4738 16.5948 54.2279 16.8408C53.982 17.0867 53.6489 17.2253 53.3011 17.2263H47.6794V20.813H55.9605V23.0556C55.961 23.2281 55.9274 23.3991 55.8617 23.5584C55.7958 23.7179 55.6992 23.8628 55.5773 23.9847C55.4553 24.1067 55.3104 24.2034 55.1511 24.2691C54.9916 24.335 54.8208 24.3686 54.6483 24.3681H43.7764V8.03502C43.7764 7.86207 43.8105 7.69085 43.877 7.5311C43.9434 7.37138 44.0406 7.22638 44.1633 7.10441C44.2859 6.98245 44.4315 6.88595 44.5916 6.82043C44.7517 6.75491 44.923 6.72169 45.0961 6.72268Z" fill="white"/>
<path d="M31.5552 24.368H28.9717V8.03507C28.9717 7.68699 29.11 7.35317 29.356 7.10705C29.6021 6.86093 29.9358 6.72266 30.2839 6.72266H41.0311V8.95779C41.0302 9.30557 40.8916 9.63879 40.6457 9.88472C40.3998 10.1306 40.0667 10.2692 39.7189 10.2701H32.8562V14.252H39.6504V16.2879C39.6504 16.6361 39.5121 16.9698 39.2661 17.216C39.02 17.4621 38.6861 17.6003 38.3381 17.6003H32.8562V23.0594C32.8562 23.4051 32.7193 23.7369 32.4755 23.9822C32.2317 24.2273 31.9008 24.366 31.5552 24.368Z" fill="white"/>
<path d="M15.5809 24.3053C15.8273 24.5468 16.0231 24.835 16.1566 25.1531C16.2903 25.4711 16.3591 25.8127 16.3591 26.1577C16.3591 26.5027 16.2903 26.8442 16.1566 27.1622C16.0231 27.4804 15.8273 27.7685 15.5809 28.01L13.7955 29.792L11.9804 27.973C10.9841 26.9744 10.3945 25.6412 10.326 24.2323C10.2576 22.8233 10.7152 21.4391 11.61 20.3486L15.5809 24.3053Z" fill="white"/>
<path d="M15.6291 11.1012C16.1041 11.577 16.371 12.2219 16.371 12.8943C16.371 13.5666 16.1041 14.2116 15.6291 14.6874L11.1841 19.1331C10.5494 19.7637 10.0464 20.5143 9.70429 21.3411C9.36218 22.1679 9.18775 23.0544 9.19113 23.9492C9.19218 24.416 9.24062 24.8814 9.33556 25.3385L7.58347 23.538C6.5176 22.4703 5.91895 21.0234 5.91895 19.5147C5.91895 18.006 6.5176 16.5588 7.58347 15.4913L13.814 9.26367L15.6291 11.1012Z" fill="white"/>
<path d="M15.622 2.25124C16.0987 2.72846 16.3663 3.37538 16.3663 4.04988C16.3663 4.72438 16.0987 5.3713 15.622 5.84853L6.77993 14.7028C5.9795 15.5023 5.39099 16.4887 5.0676 17.5728C4.74421 18.6569 4.69615 19.8046 4.9278 20.912L3.13864 19.1189C2.61022 18.5914 2.19098 17.9648 1.90495 17.2751C1.61892 16.5853 1.47168 15.846 1.47168 15.0993C1.47168 14.3525 1.61892 13.6132 1.90495 12.9234C2.19098 12.2337 2.61022 11.6071 3.13864 11.0796L13.7921 0.424805L15.622 2.25124Z" fill="white"/>
</g>
</g>
<defs>
<clipPath id="clip0_2769_41491">
<rect width="74.2406" height="30" fill="white" transform="translate(0.49707)"/>
</clipPath>
</defs>
</svg>
