<svg width="120" height="30" viewBox="0 0 120 30" fill="none" xmlns="http://www.w3.org/2000/svg">
<g clip-path="url(#clip0_2769_41502)">
<mask id="mask0_2769_41502" style="mask-type:luminance" maskUnits="userSpaceOnUse" x="0" y="0" width="119" height="30">
<path d="M118.685 0H0.644531V30H118.685V0Z" fill="white"/>
</mask>
<g mask="url(#mask0_2769_41502)">
<path d="M65.788 22.7879C66.4456 22.7856 67.0756 22.5224 67.5395 22.0562C68.0034 21.5901 68.2635 20.9589 68.2627 20.3012C67.1065 20.8462 65.8045 21.0012 64.5526 20.7427C63.3007 20.4842 62.1665 19.8263 61.3206 18.8679C60.4747 17.9094 59.9629 16.7023 59.8621 15.428C59.7612 14.1537 60.0768 12.881 60.7614 11.8014C61.4459 10.7219 62.4625 9.89374 63.6581 9.44156C64.8539 8.98939 66.1639 8.93756 67.3915 9.29396C68.6192 9.65036 69.6979 10.3957 70.4656 11.4179C71.2332 12.4401 71.6482 13.6838 71.6483 14.9621V20.3101C71.6499 21.8697 71.0329 23.3664 69.9326 24.4717C68.8323 25.5771 67.3386 26.2009 65.779 26.2065L65.788 22.7879ZM63.3101 14.9531C63.3131 15.4418 63.4607 15.9186 63.7343 16.3236C64.0079 16.7286 64.3952 17.0434 64.8475 17.2285C65.2998 17.4136 65.7967 17.4606 66.2758 17.3637C66.7547 17.2668 67.1943 17.0302 67.5391 16.6839C67.8838 16.3374 68.1182 15.8967 68.2129 15.4173C68.3074 14.9379 68.258 14.4411 68.0707 13.9897C67.8835 13.5384 67.5667 13.1525 67.1605 12.8808C66.7542 12.6092 66.2767 12.4639 65.788 12.4633C65.1295 12.4657 64.4988 12.7292 64.0342 13.1959C63.5698 13.6627 63.3094 14.2946 63.3101 14.9531ZM83.9656 14.9531C83.9656 14.1823 84.1171 13.4191 84.4119 12.707C84.7074 11.9949 85.1394 11.3478 85.6846 10.8028C86.2291 10.2578 86.8764 9.82549 87.5889 9.53051C88.3006 9.23554 89.0641 9.08374 89.8344 9.08374C90.6054 9.08374 91.3689 9.23554 92.0806 9.53051C92.7931 9.82549 93.4396 10.2578 93.9849 10.8028C94.5302 11.3478 94.9621 11.9949 95.2576 12.707C95.5524 13.4191 95.7039 14.1823 95.7039 14.9531V20.7296H92.3214V14.9621C92.3191 14.4733 92.1721 13.9961 91.8991 13.5908C91.6254 13.1854 91.2384 12.8701 90.7861 12.6846C90.3339 12.499 89.8366 12.4515 89.3574 12.5481C88.8782 12.6447 88.4386 12.8811 88.0936 13.2273C87.7486 13.5736 87.5139 14.0143 87.4186 14.4939C87.3241 14.9733 87.3736 15.4702 87.5604 15.9218C87.7479 16.3734 88.0644 16.7594 88.4709 17.0312C88.8774 17.3029 89.3551 17.4483 89.8434 17.4489C90.3864 17.4486 90.9136 17.2672 91.3419 16.9335V20.6607C90.8536 20.7925 90.3496 20.859 89.8434 20.8584C88.2849 20.8521 86.7916 20.2279 85.6921 19.1226C84.5927 18.0174 83.9754 16.5212 83.9776 14.9621L83.9656 14.9531ZM35.8089 14.9531C35.8089 13.3965 36.4273 11.9036 37.528 10.8028C38.6287 9.70211 40.1216 9.08374 41.6782 9.08374C43.2349 9.08374 44.7278 9.70211 45.8285 10.8028C46.9293 11.9036 47.5477 13.3965 47.5477 14.9531V20.7296H44.1561V14.9621C44.1537 14.4732 44.0065 13.9959 43.7332 13.5905C43.4598 13.185 43.0725 12.8697 42.6201 12.6843C42.1676 12.4988 41.6704 12.4515 41.1912 12.5483C40.7119 12.6452 40.2721 12.8818 39.9271 13.2284C39.5822 13.575 39.3477 14.016 39.2532 14.4957C39.1587 14.9754 39.2084 15.4724 39.3961 15.9239C39.5837 16.3754 39.9009 16.7612 40.3076 17.0326C40.7143 17.304 41.1923 17.4489 41.6812 17.4489C42.224 17.4481 42.751 17.2668 43.1794 16.9335V20.6607C42.6908 20.7922 42.1871 20.8587 41.6812 20.8584C40.1219 20.8521 38.6286 20.228 37.5285 19.1228C36.4284 18.0176 35.8111 16.5215 35.8119 14.9621L35.8089 14.9531ZM110.211 20.7356V14.0603C110.211 13.8525 110.171 13.6468 110.091 13.4549C110.012 13.263 109.895 13.0886 109.748 12.9417C109.601 12.7947 109.427 12.6783 109.235 12.5988C109.043 12.5193 108.837 12.4783 108.629 12.4783C108.422 12.4783 108.216 12.5193 108.024 12.5988C107.832 12.6783 107.657 12.7947 107.51 12.9417C107.363 13.0886 107.247 13.263 107.168 13.4549C107.088 13.6468 107.048 13.8525 107.048 14.0603V20.7446H103.655V14.0603C103.655 13.8525 103.615 13.6468 103.535 13.4549C103.456 13.263 103.34 13.0886 103.193 12.9417C103.046 12.7947 102.871 12.6783 102.679 12.5988C102.487 12.5193 102.281 12.4783 102.074 12.4783C101.866 12.4783 101.66 12.5193 101.468 12.5988C101.276 12.6783 101.102 12.7947 100.955 12.9417C100.808 13.0886 100.691 13.263 100.612 13.4549C100.532 13.6468 100.492 13.8525 100.492 14.0603V20.7446H97.1004V14.0603C97.0996 12.7383 97.6231 11.4698 98.5554 10.533C99.4884 9.59621 100.754 9.06754 102.077 9.06274C103.285 9.06236 104.451 9.50471 105.354 10.3062C106.073 9.67661 106.959 9.26794 107.905 9.12919C108.851 8.99036 109.816 9.12731 110.686 9.52361C111.556 9.91991 112.292 10.5588 112.808 11.3634C113.324 12.1681 113.597 13.1045 113.594 14.0603V20.7446L110.211 20.7356ZM79.4079 20.7356V14.0603C79.4079 13.8525 79.3674 13.6468 79.2879 13.4549C79.2084 13.263 79.0921 13.0886 78.9451 12.9417C78.7981 12.7947 78.6234 12.6783 78.4314 12.5988C78.2394 12.5193 78.0339 12.4783 77.8261 12.4783C77.6184 12.4783 77.4129 12.5193 77.2209 12.5988C77.0289 12.6783 76.8549 12.7947 76.7079 12.9417C76.5609 13.0886 76.4446 13.263 76.3651 13.4549C76.2856 13.6468 76.2444 13.8525 76.2444 14.0603V20.7446H72.8467V5.83895H76.2414V9.32344C76.7506 9.15049 77.2854 9.06244 77.8231 9.06274C79.1446 9.06829 80.4099 9.59741 81.3421 10.5341C82.2744 11.4708 82.7979 12.7387 82.7971 14.0603V20.7446L79.4079 20.7356ZM55.4813 20.7356V14.0603C55.4906 13.8469 55.4566 13.6339 55.3814 13.434C55.3062 13.2342 55.1912 13.0517 55.0435 12.8974C54.8959 12.7432 54.7185 12.6204 54.5221 12.5366C54.3258 12.4527 54.1144 12.4095 53.9009 12.4095C53.6874 12.4095 53.476 12.4527 53.2796 12.5366C53.0833 12.6204 52.9059 12.7432 52.7582 12.8974C52.6105 13.0517 52.4956 13.2342 52.4204 13.434C52.3451 13.6339 52.3111 13.8469 52.3204 14.0603V20.7446H48.9319V14.0603C48.9156 13.3967 49.0322 12.7365 49.2749 12.1187C49.5176 11.5008 49.8814 10.9377 50.345 10.4627C50.8086 9.98756 51.3625 9.61001 51.9743 9.35224C52.586 9.09446 53.2431 8.96164 53.9069 8.96164C54.5707 8.96164 55.2278 9.09446 55.8395 9.35224C56.4512 9.61001 57.0052 9.98756 57.4687 10.4627C57.9323 10.9377 58.2962 11.5008 58.5388 12.1187C58.7815 12.7365 58.8982 13.3967 58.8819 14.0603V20.7446L55.4813 20.7356ZM114.939 20.7356V9.62606H118.334V20.7446L114.939 20.7356ZM114.594 6.74078C114.593 6.19778 114.809 5.67666 115.192 5.29186C115.574 4.90705 116.095 4.69003 116.638 4.68845C117.044 4.68667 117.442 4.80553 117.78 5.02996C118.119 5.25439 118.384 5.57428 118.541 5.94914C118.697 6.32399 118.739 6.73693 118.661 7.13563C118.583 7.53431 118.388 7.90084 118.101 8.18876C117.815 8.47669 117.449 8.67311 117.05 8.75299C116.652 8.83294 116.239 8.79281 115.864 8.63771C115.488 8.48269 115.167 8.21959 114.941 7.88194C114.715 7.54421 114.594 7.14708 114.594 6.74078ZM0.640631 14.998C0.640631 11.0198 2.22099 7.20449 5.03403 4.39144C7.84707 1.5784 11.6624 -0.00195312 15.6406 -0.00195312C19.6189 -0.00195312 23.4342 1.5784 26.2472 4.39144C29.0602 7.20449 30.6406 11.0198 30.6406 14.998V28.6423L28.843 28.3098V14.998C28.838 12.2121 27.9517 9.49909 26.311 7.24743C24.6703 4.99579 22.3593 3.32098 19.7088 2.46273C17.0583 1.60447 14.2042 1.60679 11.5551 2.46935C8.90602 3.3319 6.59771 5.01048 4.96066 7.26477C3.32361 9.51904 2.44175 12.2335 2.44131 15.0195C2.44087 17.8055 3.32188 20.5202 4.95822 22.775C6.59456 25.0298 8.90235 26.7091 11.5511 27.5725C14.2 28.4359 17.0541 28.4391 19.7048 27.5817L22.8448 28.1809C20.5582 29.4304 17.9858 30.0631 15.3805 30.0166C12.7753 29.9702 10.2271 29.2462 7.98657 27.916C5.74606 26.5857 3.89048 24.6951 2.60244 22.4301C1.31441 20.1651 0.638293 17.6037 0.640631 14.998ZM26.1075 27.8004V14.998C26.1079 12.745 25.3828 10.5517 24.0393 8.74301C22.6957 6.93433 20.8054 5.60644 18.6484 4.95603C16.4912 4.30562 14.182 4.36727 12.0625 5.13186C9.9432 5.89644 8.12646 7.32329 6.8814 9.20111C5.63633 11.0789 5.02917 13.3077 5.14984 15.5576C5.27051 17.8074 6.11259 19.9585 7.55136 21.6924C8.9901 23.4262 10.9491 24.6506 13.138 25.1841C15.3271 25.7176 17.6296 25.5319 19.7048 24.6545V26.569C17.2492 27.4317 14.5827 27.491 12.0911 26.7381C9.59962 25.9852 7.4121 24.4593 5.8451 22.381C4.2781 20.3028 3.41282 17.7799 3.37441 15.1773C3.336 12.5748 4.12647 10.0275 5.63147 7.90391C7.13646 5.78032 9.27795 4.19052 11.7462 3.36445C14.2144 2.53838 16.8815 2.5189 19.3616 3.3088C21.8416 4.09869 24.0061 5.65702 25.5421 7.75841C27.0779 9.85976 27.9055 12.3952 27.9052 14.998V28.133L26.1075 27.8004ZM23.411 27.2821V14.998C23.4096 13.2858 22.8402 11.6224 21.792 10.2685C20.7438 8.91469 19.276 7.94681 17.6187 7.51661C15.9614 7.0864 14.2082 7.21819 12.6338 7.89131C11.0595 8.56444 9.75292 9.74089 8.91892 11.2362C8.08488 12.7317 7.77054 14.4615 8.02514 16.1547C8.27977 17.8479 9.08887 19.4088 10.3258 20.5927C11.5627 21.7767 13.1575 22.5169 14.8601 22.6973C16.5628 22.8777 18.2773 22.488 19.7348 21.5895V23.6178C17.8668 24.5047 15.7612 24.7608 13.735 24.3475C11.7088 23.9343 9.8718 22.8741 8.50027 21.3264C7.12883 19.7788 6.29718 17.8275 6.13056 15.7664C5.96394 13.7052 6.47136 11.6457 7.57644 9.89786C8.68155 8.15006 10.3244 6.80848 12.2579 6.07512C14.1913 5.34176 16.3108 5.25629 18.297 5.8316C20.2832 6.4069 22.0288 7.61186 23.2711 9.26501C24.5133 10.9182 25.1848 12.9302 25.1847 14.998V27.6267L23.411 27.2821ZM20.6816 26.7757V14.998C20.6809 13.8024 20.2535 12.6462 19.4761 11.7378C18.6988 10.8293 17.6226 10.2282 16.4413 10.0428C15.2602 9.85736 14.0515 10.0998 13.0333 10.7264C12.0149 11.3529 11.2537 12.3225 10.8868 13.4604C10.5199 14.5984 10.5712 15.83 11.0317 16.9335C11.4923 18.0369 12.3316 18.9396 13.3987 19.4791C14.4657 20.0187 15.6902 20.1594 16.8519 19.8762C18.0135 19.593 19.0359 18.9043 19.7348 17.9343V20.454C18.5083 21.3765 17.0063 21.858 15.472 21.8204C13.9378 21.7827 12.4612 21.2282 11.2814 20.2466C10.1017 19.2649 9.28792 17.9137 8.97195 16.4119C8.65597 14.91 8.85637 13.3455 9.5406 11.9718C10.2248 10.598 11.3529 9.49549 12.7419 8.84284C14.131 8.19019 15.6997 8.02571 17.1939 8.37589C18.6881 8.72614 20.0203 9.57064 20.9747 10.7725C21.9291 11.9744 22.4497 13.4633 22.4523 14.998V27.1173L20.6816 26.7757Z" fill="white"/>
</g>
</g>
<defs>
<clipPath id="clip0_2769_41502">
<rect width="118.5" height="30" fill="white" transform="translate(0.644531)"/>
</clipPath>
</defs>
</svg>
