<svg width="140" height="20" viewBox="0 0 140 20" fill="none" xmlns="http://www.w3.org/2000/svg">
<g clip-path="url(#clip0_2769_41553)">
<path d="M8.30074 3.55371C9.37664 3.55371 10.3581 3.70943 11.2453 4.02089C12.1419 4.33232 12.9488 4.73817 13.6661 5.23835C14.3928 5.7291 15.0299 6.23875 15.5772 6.7673C15.8792 7.0504 16.1529 7.32885 16.3983 7.60255C16.6437 7.87625 16.8796 8.14995 17.1061 8.4236C17.3137 8.14995 17.526 7.88565 17.7431 7.63085C17.9696 7.3666 18.2527 7.0787 18.5927 6.7673C19.4137 5.96505 20.4329 5.2289 21.6504 4.55883C22.8774 3.88874 24.2977 3.55371 25.9117 3.55371C27.4217 3.55371 28.7949 3.92179 30.0313 4.65793C31.2771 5.38465 32.2632 6.36145 32.9899 7.58835C33.7261 8.81525 34.094 10.1744 34.094 11.6655C34.094 12.7982 33.8818 13.8597 33.457 14.8506C33.0325 15.8322 32.4472 16.6958 31.7016 17.4413C30.956 18.1775 30.0879 18.758 29.0969 19.1827C28.1059 19.5978 27.0441 19.8055 25.9117 19.8055C24.8356 19.8055 23.8446 19.6547 22.9388 19.3524C22.0421 19.0411 21.2305 18.6448 20.5038 18.1635C19.7865 17.6821 19.1543 17.1866 18.6067 16.6769C18.2953 16.3656 18.0168 16.073 17.7714 15.7993C17.5357 15.5162 17.3137 15.2377 17.1061 14.9641C16.8702 15.2377 16.6295 15.5162 16.3842 15.7993C16.1388 16.0824 15.8651 16.375 15.5631 16.6769C15.0251 17.1866 14.3928 17.6821 13.6661 18.1635C12.9488 18.6354 12.1419 19.027 11.2453 19.3384C10.3581 19.6498 9.37664 19.8055 8.30074 19.8055C6.77179 19.8055 5.38919 19.4422 4.15281 18.7154C2.91645 17.9887 1.93021 17.012 1.19405 15.785C0.457923 14.5487 0.0898438 13.1755 0.0898438 11.6655C0.0898438 10.5424 0.297466 9.4948 0.712739 8.5227C1.13744 7.5412 1.72259 6.6776 2.46815 5.932C3.22319 5.18645 4.09619 4.60602 5.08716 4.19077C6.08754 3.76608 7.15874 3.55371 8.30074 3.55371ZM3.99709 11.6655C3.99709 12.4487 4.19057 13.1615 4.57751 13.8031C4.96447 14.445 5.48354 14.9546 6.13474 15.332C6.78594 15.7096 7.50794 15.8984 8.30074 15.8984C9.18784 15.8984 10.0042 15.7002 10.7498 15.3037C11.4954 14.9075 12.1891 14.4073 12.8308 13.8031C13.2367 13.4163 13.5859 13.0435 13.8784 12.6847C14.171 12.3262 14.4258 11.9863 14.6429 11.6655C14.4164 11.3635 14.1474 11.0285 13.836 10.6603C13.534 10.2828 13.1989 9.9242 12.8308 9.58445C12.2268 8.98985 11.5426 8.48965 10.7781 8.08385C10.0136 7.6686 9.18784 7.46095 8.30074 7.46095C7.50794 7.46095 6.78594 7.65445 6.13474 8.0414C5.48354 8.4189 4.96447 8.92855 4.57751 9.5703C4.19057 10.2027 3.99709 10.9011 3.99709 11.6655ZM30.1587 11.6655C30.1587 10.9011 29.965 10.2027 29.5782 9.5703C29.2006 8.92855 28.691 8.4189 28.0493 8.0414C27.4075 7.65445 26.695 7.46095 25.9117 7.46095C25.3075 7.46095 24.7319 7.55535 24.1846 7.7441C23.6372 7.93285 23.1228 8.18765 22.6414 8.50855C22.1695 8.82945 21.7353 9.18805 21.3391 9.58445C20.9143 9.98085 20.5415 10.3867 20.2207 10.802C19.8999 11.2078 19.6685 11.4956 19.5271 11.6655C19.7628 11.9957 20.0273 12.3402 20.3198 12.699C20.6123 13.0481 20.952 13.4163 21.3391 13.8031C21.9712 14.4073 22.6603 14.9075 23.4059 15.3037C24.1609 15.7002 24.9962 15.8984 25.9117 15.8984C26.695 15.8984 27.4075 15.7096 28.0493 15.332C28.691 14.9546 29.2006 14.445 29.5782 13.8031C29.965 13.1615 30.1587 12.4487 30.1587 11.6655Z" fill="white"/>
<path d="M49.2574 0.90909V19.7153H45.8506V0.90909H49.2574ZM56.1242 11.4508V19.7153H52.7997V5.61065H55.9767V8.00735H56.1422C56.4667 7.2176 56.9842 6.5901 57.6942 6.1249C58.4102 5.6596 59.2947 5.42695 60.3477 5.42695C61.3212 5.42695 62.1692 5.63515 62.8917 6.0514C63.6202 6.4677 64.1832 7.0707 64.5812 7.8604C64.9852 8.65015 65.1842 9.6082 65.1782 10.7346V19.7153H61.8537V11.2488C61.8537 10.3061 61.6092 9.5684 61.1192 9.0358C60.6357 8.5032 59.9652 8.2369 59.1082 8.2369C58.5267 8.2369 58.0097 8.36545 57.5562 8.6226C57.1097 8.87355 56.7577 9.2378 56.5002 9.7153C56.2492 10.1928 56.1242 10.7713 56.1242 11.4508ZM75.7012 5.61065V8.1818H67.3637V5.61065H75.7012ZM69.4477 19.7153V4.27915C69.4477 3.33028 69.6437 2.54054 70.0357 1.91C70.4337 1.27946 70.9662 0.80808 71.6332 0.495864C72.3007 0.18365 73.0412 0.0275552 73.8557 0.0275552C74.4312 0.0275552 74.9422 0.0734545 75.3892 0.165306C75.8362 0.257131 76.1667 0.33977 76.3807 0.413224L75.7197 2.9844C75.5792 2.94154 75.4017 2.89868 75.1872 2.85583C74.9732 2.80686 74.7342 2.78238 74.4707 2.78238C73.8527 2.78238 73.4152 2.93236 73.1577 3.23232C72.9067 3.52616 72.7812 3.94857 72.7812 4.49955V19.7153H69.4477ZM78.3047 19.7153V5.61065H81.6287V19.7153H78.3047ZM79.9762 3.60879C79.4492 3.60879 78.9962 3.43434 78.6167 3.08541C78.2372 2.73034 78.0477 2.30485 78.0477 1.80899C78.0477 1.30701 78.2372 0.881535 78.6167 0.532605C78.9962 0.177534 79.4492 0 79.9762 0C80.5087 0 80.9617 0.177534 81.3352 0.532605C81.7147 0.881535 81.9042 1.30701 81.9042 1.80899C81.9042 2.30485 81.7147 2.73034 81.3352 3.08541C80.9617 3.43434 80.5087 3.60879 79.9762 3.60879ZM96.1952 9.33885L93.1647 9.6694C93.0792 9.3633 92.9292 9.0756 92.7147 8.8062C92.5067 8.53685 92.2247 8.31955 91.8697 8.15425C91.5147 7.98895 91.0802 7.9063 90.5657 7.9063C89.8742 7.9063 89.2927 8.0563 88.8212 8.35625C88.3562 8.65625 88.1262 9.045 88.1327 9.5225C88.1262 9.93265 88.2762 10.2663 88.5822 10.5234C88.8947 10.7805 89.4092 10.9917 90.1252 11.157L92.5312 11.6712C93.8657 11.9591 94.8572 12.4151 95.5062 13.0395C96.1612 13.6638 96.4917 14.4811 96.4982 15.4912C96.4917 16.379 96.2317 17.1625 95.7172 17.8419C95.2092 18.5153 94.5022 19.0419 93.5962 19.4214C92.6902 19.801 91.6497 19.9909 90.4742 19.9909C88.7477 19.9909 87.3582 19.6297 86.3052 18.9072C85.2522 18.1786 84.6247 17.1656 84.4227 15.8678L87.6642 15.5555C87.8112 16.192 88.1232 16.6728 88.6007 16.9972C89.0782 17.3218 89.6997 17.4839 90.4647 17.4839C91.2547 17.4839 91.8882 17.3218 92.3657 16.9972C92.8492 16.6728 93.0912 16.2718 93.0912 15.7942C93.0912 15.3902 92.9352 15.0567 92.6227 14.7933C92.3167 14.5301 91.8392 14.3281 91.1902 14.1872L88.7842 13.6821C87.4317 13.4007 86.4307 12.9261 85.7817 12.2589C85.1327 11.5855 84.8112 10.7346 84.8177 9.70615C84.8112 8.8368 85.0472 8.08385 85.5247 7.44715C86.0082 6.8044 86.6787 6.30855 87.5357 5.9596C88.3987 5.6045 89.3937 5.42695 90.5202 5.42695C92.1727 5.42695 93.4737 5.779 94.4227 6.483C95.3777 7.187 95.9687 8.13895 96.1952 9.33885ZM99.2392 19.7153V5.61065H102.563V19.7153H99.2392ZM100.91 3.60879C100.384 3.60879 99.9307 3.43434 99.5512 3.08541C99.1717 2.73034 98.9817 2.30485 98.9817 1.80899C98.9817 1.30701 99.1717 0.881535 99.5512 0.532605C99.9307 0.177534 100.384 0 100.91 0C101.443 0 101.896 0.177534 102.269 0.532605C102.649 0.881535 102.839 1.30701 102.839 1.80899C102.839 2.30485 102.649 2.73034 102.269 3.08541C101.896 3.43434 101.443 3.60879 100.91 3.60879ZM112.134 19.9909C110.726 19.9909 109.517 19.6816 108.507 19.0634C107.503 18.445 106.728 17.5911 106.183 16.5013C105.645 15.4056 105.375 14.1444 105.375 12.7182C105.375 11.2856 105.651 10.0214 106.202 8.9256C106.753 7.8237 107.53 6.96665 108.534 6.35445C109.544 5.73615 110.738 5.42695 112.116 5.42695C113.26 5.42695 114.273 5.6382 115.155 6.0606C116.043 6.4769 116.75 7.06765 117.276 7.83285C117.803 8.59195 118.103 9.4796 118.176 10.4958H114.999C114.87 9.8163 114.564 9.25005 114.081 8.79705C113.603 8.3379 112.963 8.10835 112.161 8.10835C111.482 8.10835 110.885 8.292 110.371 8.6593C109.857 9.0205 109.456 9.54085 109.168 10.2204C108.886 10.8999 108.746 11.714 108.746 12.6629C108.746 13.624 108.886 14.4507 109.168 15.1424C109.449 15.8279 109.844 16.3575 110.352 16.7308C110.867 17.0982 111.47 17.2819 112.161 17.2819C112.651 17.2819 113.089 17.1901 113.474 17.0063C113.866 16.8167 114.194 16.5441 114.457 16.1891C114.72 15.8341 114.901 15.4026 114.999 14.8943H118.176C118.096 15.8923 117.803 16.7768 117.295 17.5483C116.786 18.3132 116.095 18.9134 115.219 19.3479C114.344 19.7765 113.315 19.9909 112.134 19.9909ZM124.965 20C124.071 20 123.266 19.8408 122.549 19.5224C121.839 19.1981 121.276 18.7206 120.86 18.09C120.45 17.4594 120.245 16.6821 120.245 15.7576C120.245 14.9616 120.391 14.3036 120.685 13.7832C120.979 13.2628 121.38 12.8466 121.888 12.5344C122.396 12.2222 122.969 11.9865 123.605 11.8273C124.248 11.662 124.912 11.5427 125.598 11.4692C126.424 11.3835 127.095 11.307 127.609 11.2396C128.123 11.1662 128.497 11.056 128.729 10.909C128.968 10.756 129.087 10.5203 129.087 10.202V10.1469C129.087 9.45515 128.882 8.9195 128.472 8.53995C128.062 8.1604 127.471 7.9706 126.7 7.9706C125.886 7.9706 125.24 8.14815 124.762 8.5032C124.291 8.85825 123.973 9.2776 123.807 9.76125L120.704 9.32045C120.949 8.4634 121.353 7.74715 121.916 7.1717C122.479 6.5901 123.168 6.1555 123.982 5.86775C124.796 5.5739 125.696 5.42695 126.682 5.42695C127.361 5.42695 128.038 5.50655 128.711 5.66575C129.384 5.8249 130 6.08815 130.557 6.45545C131.114 6.81665 131.561 7.30945 131.897 7.9339C132.24 8.5583 132.412 9.33885 132.412 10.2754V19.7153H129.216V17.7778H129.106C128.904 18.1694 128.619 18.5368 128.252 18.8797C127.891 19.2164 127.435 19.4888 126.884 19.697C126.339 19.899 125.699 20 124.965 20ZM125.828 17.5574C126.495 17.5574 127.073 17.4258 127.563 17.1625C128.053 16.8932 128.429 16.5382 128.693 16.0972C128.962 15.6566 129.097 15.1761 129.097 14.6557V12.9934C128.993 13.0793 128.815 13.1588 128.564 13.2324C128.319 13.3059 128.044 13.37 127.738 13.4252C127.432 13.4802 127.129 13.5292 126.828 13.572C126.528 13.6148 126.268 13.6517 126.048 13.6821C125.552 13.7495 125.108 13.8597 124.716 14.0129C124.325 14.1659 124.016 14.3801 123.789 14.6557C123.562 14.925 123.449 15.2738 123.449 15.7023C123.449 16.3146 123.673 16.7768 124.12 17.0891C124.566 17.4012 125.136 17.5574 125.828 17.5574ZM139.078 0.90909V19.7153H135.754V0.90909H139.078Z" fill="white"/>
</g>
<defs>
<clipPath id="clip0_2769_41553">
<rect width="139" height="20" fill="white" transform="translate(0.0898438)"/>
</clipPath>
</defs>
</svg>
