<svg width="98" height="26" viewBox="0 0 98 26" fill="none" xmlns="http://www.w3.org/2000/svg">
<g clip-path="url(#clip0_2769_41556)">
<mask id="mask0_2769_41556" style="mask-type:luminance" maskUnits="userSpaceOnUse" x="0" y="0" width="98" height="26">
<path d="M97.5981 0H0.380859V26H97.5981V0Z" fill="white"/>
</mask>
<g mask="url(#mask0_2769_41556)">
<mask id="mask1_2769_41556" style="mask-type:luminance" maskUnits="userSpaceOnUse" x="0" y="1" width="98" height="25">
<path d="M0.390625 1.10742H97.5886V25.9996H0.390625V1.10742Z" fill="white"/>
</mask>
<g mask="url(#mask1_2769_41556)">
<path fill-rule="evenodd" clip-rule="evenodd" d="M24.9019 14.6872V1.67585C24.9019 1.50967 24.807 1.37402 24.6894 1.37402H11.261C11.238 1.37446 11.2154 1.37948 11.1944 1.3888C11.1735 1.39812 11.1546 1.41155 11.1389 1.42829L6.73696 5.88446C6.56965 6.05402 6.65443 6.43159 6.8613 6.43159H17.701L24.3954 1.95167L19.5685 7.45688V19.8465C19.5685 20.0952 19.7652 20.2365 19.9043 20.0884L24.8149 14.9291C24.8736 14.8624 24.9047 14.7759 24.9019 14.6872ZM14.1492 25.8298L18.5545 21.368C18.7219 21.1985 18.637 20.8254 18.4313 20.8254H5.93435C5.81791 20.8254 5.72183 20.6954 5.72183 20.5281V7.41053C5.72183 7.16295 5.52287 7.02281 5.38269 7.17205L0.475479 12.3302C0.419125 12.3963 0.388961 12.4807 0.390696 12.5676V23.5034C0.390696 24.8192 1.14809 25.8864 2.08635 25.8864H14.0237C14.0714 25.8848 14.1165 25.8645 14.1492 25.8298Z" fill="white"/>
<path d="M48.4811 21.2122H36.2441V1.10742H39.7892V17.9803H48.4788V21.2122H48.4811ZM50.1869 13.8734C50.1869 11.5221 50.8086 9.67611 52.0521 8.3388C53.3046 6.99246 55.0026 6.31873 57.1436 6.31873C59.1512 6.31873 60.7599 6.91563 61.9672 8.10935C63.1937 9.29515 63.8075 10.9331 63.8075 13.0245C63.8153 13.579 63.7745 14.1332 63.6854 14.6805H53.6506V15.4752C53.6506 16.4814 53.9705 17.2885 54.6103 17.8989C55.2581 18.5094 56.1115 18.8145 57.1685 18.8145C58.0129 18.8145 58.7285 18.6269 59.3141 18.2494C59.9098 17.8638 60.3145 17.3518 60.527 16.7142H63.8855C63.5746 18.16 62.8195 19.3176 61.6201 20.1891C60.3766 21.0505 58.8924 21.4813 57.1685 21.4813C54.9834 21.4813 53.273 20.803 52.0374 19.4476C50.803 18.0651 50.1846 16.2067 50.1846 13.8734H50.1869ZM53.6517 12.0557V12.3383H60.4219V11.9471C60.4219 11.0496 60.1155 10.3307 59.5028 9.79253C58.8981 9.24542 58.0943 8.97184 57.0905 8.97184C56.0595 8.97184 55.2286 9.25446 54.5979 9.8197C53.9671 10.3849 53.6517 11.131 53.6517 12.0557ZM65.7789 16.9968C65.7789 15.5792 66.2456 14.4703 67.1784 13.6711C68.1202 12.8718 69.4085 12.4728 71.0446 12.4728H75.0824V11.5029C75.0824 9.83322 74.2075 8.99901 72.4564 8.99901C70.7326 8.99901 69.8044 9.73377 69.6711 11.2067H66.3522C66.4686 9.66253 67.0815 8.46432 68.1911 7.61197C69.3026 6.74942 70.7826 6.31873 72.6293 6.31873C73.7486 6.31873 74.7171 6.48829 75.5348 6.8308C76.3531 7.17108 76.9661 7.63342 77.3736 8.21784C78.1029 9.26804 78.4669 10.3815 78.4669 11.5571V18.7885H80.3727V21.2122H77.5875C76.8413 21.2122 76.2953 21.0765 75.9482 20.8087C75.6102 20.5385 75.3931 20.1123 75.2949 19.529L75.2689 18.9231H75.0824C74.7717 19.6951 74.1893 20.3135 73.3358 20.7815C72.4915 21.2484 71.5191 21.4824 70.4173 21.4824C68.9964 21.4824 67.868 21.0822 67.0328 20.283C66.1962 19.4747 65.7789 18.3794 65.7789 16.9968ZM69.1921 16.3909V17.0511C69.1921 17.6344 69.3955 18.0798 69.8044 18.385C70.223 18.6902 70.7904 18.8417 71.5106 18.8417C72.5942 18.8417 73.4606 18.5195 74.1093 17.8729C74.758 17.2172 75.0811 16.3558 75.0811 15.2876V14.6545H71.5906C70.8353 14.6545 70.2444 14.8162 69.818 15.1384C69.4001 15.4527 69.1921 15.8709 69.1921 16.3909ZM86.3436 25.8176H82.9708V6.60135H85.9438L86.3429 9.18666H86.5685C86.9988 8.29545 87.6923 7.55763 88.5549 7.07273C89.4252 6.5697 90.4204 6.31873 91.539 6.31873C93.398 6.31873 94.8456 6.97887 95.885 8.29811C96.9341 9.61735 97.4586 11.4577 97.4586 13.8191C97.4586 16.1897 96.9341 18.0391 95.885 19.3674C94.8365 20.6865 93.3889 21.3456 91.5403 21.3456C90.3502 21.3456 89.3238 21.0958 88.4613 20.5927C87.6182 20.1111 86.9546 19.3694 86.5685 18.4788H86.3429L86.3436 25.8176ZM90.3287 18.5602C91.4656 18.5602 92.3541 18.2584 92.9944 17.657C93.6431 17.0465 93.9662 16.1987 93.9662 15.1124V12.5531C93.9662 11.4758 93.6522 10.6314 93.021 10.0209C92.3996 9.41046 91.5144 9.10528 90.3684 9.10528C89.1516 9.10528 88.174 9.46928 87.4369 10.1973C86.7076 10.9241 86.3436 11.8929 86.3436 13.1058V14.5596C86.3436 15.7714 86.7076 16.7414 87.4369 17.4682C88.1649 18.1951 89.1295 18.5591 90.3287 18.5591V18.5602Z" fill="white"/>
</g>
</g>
</g>
<defs>
<clipPath id="clip0_2769_41556">
<rect width="97.5" height="26" fill="white" transform="translate(0.380859)"/>
</clipPath>
</defs>
</svg>
