<svg width="116" height="30" viewBox="0 0 116 30" fill="none" xmlns="http://www.w3.org/2000/svg">
<g clip-path="url(#clip0_2769_41533)">
<path fill-rule="evenodd" clip-rule="evenodd" d="M26.5126 5.5577H23.916L23.9166 24.7478H26.5126V5.5577ZM31.3303 11.0438H28.7344V24.7478H31.3303V11.0438ZM31.3303 5.41016H28.7344V8.9027H31.3303V5.41016ZM35.14 11.0438H32.3503L36.2776 24.7478H39.1745L43.1016 11.0438H40.3545L38.7131 17.5348C38.6704 17.7035 38.5165 18.3642 38.2518 19.515L37.7259 21.7232C37.4152 20.3219 37.0899 18.9256 36.7501 17.5348L35.14 11.0438ZM53.7347 15.3267C53.5202 14.4077 53.2052 13.6265 52.79 12.9839C52.3247 12.2626 51.7352 11.7045 51.0199 11.3118C50.3118 10.9101 49.5248 10.7102 48.6597 10.7102C47.0146 10.7102 45.698 11.352 44.7111 12.6364C44.2186 13.3 43.8425 14.084 43.6059 14.9389C43.3626 15.8215 43.2411 16.7986 43.2411 17.8692C43.2411 20.1618 43.7313 21.933 44.7119 23.1824C45.7055 24.4486 47.0292 25.0823 48.6809 25.0823C50.0973 25.0823 51.2447 24.6856 52.1256 23.8913C53.0053 23.0972 53.5884 21.9199 53.8743 20.3585L51.3421 20.1175C51.2206 20.9651 50.9411 21.5987 50.505 22.0175C50.0685 22.4283 49.4534 22.6339 48.6597 22.6339C46.8431 22.6339 45.9133 21.3577 45.8704 18.8061H54.0458L54.0569 18.3513C54.0569 17.2537 53.9492 16.2455 53.7347 15.3267ZM46.4492 14.3634C46.9074 13.5602 47.6443 13.1585 48.6597 13.1585C49.1529 13.1585 49.5681 13.243 49.9041 13.4126C50.2404 13.5823 50.5306 13.8543 50.7735 14.2291C50.9628 14.5198 51.1079 14.8509 51.2029 15.206C51.3094 15.5768 51.3744 15.9639 51.3961 16.3568H45.8913C45.9559 15.5626 46.142 14.898 46.4492 14.3634ZM64.1427 11.5798C63.4062 10.9815 62.5549 10.6831 61.5896 10.6831H61.588C60.8878 10.6831 60.2474 10.861 59.6678 11.2184C59.0976 11.5651 58.6095 12.0907 58.2511 12.7437V5.5577H55.6554V24.7478H58.2519V22.861C58.5807 23.539 59.0472 24.0974 59.6035 24.4799C60.1832 24.8816 60.8231 25.0823 61.5238 25.0823C62.4969 25.0823 63.3585 24.7922 64.1112 24.2127C64.8615 23.6332 65.4443 22.8028 65.8591 21.7232C66.281 20.6347 66.4928 19.3595 66.4928 17.8963C66.4928 16.4683 66.2846 15.211 65.8706 14.1225C65.4625 13.0249 64.8864 12.1774 64.1427 11.5798ZM63.0371 21.5224C62.6227 22.3076 61.9145 22.6995 60.9126 22.6995C60.0108 22.6995 59.3318 22.2937 58.8749 21.4822C58.4167 20.6707 58.188 19.4839 58.188 17.9226C58.188 16.4144 58.3918 15.2373 58.7991 14.3895C59.2143 13.5331 59.9119 13.1052 60.8917 13.1052C61.8932 13.1052 62.6046 13.4979 63.0269 14.2822C63.4492 15.0585 63.6597 16.2634 63.6597 17.8963C63.6597 19.5282 63.4527 20.7373 63.0371 21.5224ZM70.7098 5.5577H68.1134V24.7478H70.7098V5.5577ZM74.9159 24.2256C75.7601 24.7969 76.7612 25.0823 77.9205 25.0823C79.0363 25.0823 80.0162 24.7832 80.86 24.1864C81.6979 23.6054 82.3808 22.7304 82.8236 21.67C83.2881 20.5815 83.5211 19.3232 83.5211 17.8963C83.5211 16.5225 83.292 15.2904 82.8343 14.2028C82.395 13.1297 81.7172 12.2375 80.8817 11.6332C80.0371 11.0175 79.0501 10.7094 77.9205 10.7094C76.7829 10.7094 75.7885 11.0175 74.9376 11.6332C74.104 12.235 73.4262 13.1217 72.9846 14.1888C72.5343 15.2684 72.3087 16.5043 72.3087 17.8963C72.3087 19.3774 72.5303 20.657 72.9739 21.7363C73.4053 22.7912 74.0823 23.6589 74.9159 24.2256ZM80.0765 21.5363C79.6404 22.3036 78.9212 22.6871 77.9205 22.6871C77.2407 22.6871 76.6934 22.5175 76.279 22.1782C75.8634 21.8307 75.5629 21.3085 75.3772 20.6126C75.1911 19.9077 75.0984 19.002 75.0984 17.8955C75.0984 16.2365 75.3169 15.0232 75.753 14.2561C76.1966 13.4889 76.9189 13.1052 77.9205 13.1052C78.9145 13.1052 79.6298 13.4889 80.0663 14.2561C80.5098 15.0232 80.731 16.2365 80.731 17.8963C80.731 19.5552 80.513 20.7683 80.0765 21.5363ZM87.062 24.2256C87.8991 24.7969 88.8967 25.0823 90.0559 25.0823C90.9569 25.0823 91.7621 24.8865 92.4698 24.4938C93.1784 24.1011 93.7533 23.5527 94.1973 22.8478C94.6421 22.1294 94.9334 21.2819 95.0446 20.3848L92.5448 20.0642C92.3732 20.9201 92.0874 21.5585 91.6864 21.9774C91.2861 22.397 90.742 22.6069 90.0559 22.6069C89.3548 22.6069 88.804 22.4283 88.403 22.0708C88.0028 21.7052 87.7236 21.1839 87.5667 20.5053C87.409 19.8183 87.3305 18.9487 87.3305 17.8963C87.3305 16.861 87.409 16.0045 87.5667 15.3267C87.7236 14.6397 87.9988 14.1134 88.3927 13.7472C88.7934 13.3724 89.3474 13.1856 90.0559 13.1856C90.8138 13.1856 91.3756 13.4487 91.7404 13.975C92.1122 14.4921 92.3772 15.201 92.5337 16.1029L94.9914 15.5537C94.7556 14.0905 94.2221 12.9176 93.3921 12.0348C92.5696 11.1511 91.4577 10.7102 90.0559 10.7102C88.9113 10.7102 87.9208 11.0135 87.0833 11.62C86.2568 12.2134 85.5889 13.0979 85.1634 14.1625C84.7198 15.2422 84.4974 16.4864 84.4974 17.8963C84.4974 19.3856 84.7155 20.6707 85.152 21.7504C85.5956 22.8297 86.2324 23.6553 87.062 24.2256ZM99.0259 19.6625L100.238 18.2167L103.457 24.7478H106.451L101.998 16.1421L106.311 11.0438H102.942L99.0259 16.0495V5.5577H96.429V24.7478H99.0259V19.6625ZM108.726 24.587C109.456 24.9174 110.267 25.0821 111.161 25.0821C112.528 25.0821 113.654 24.7428 114.541 24.0659C115.436 23.3871 115.883 22.2805 115.883 20.7462C115.883 19.7468 115.675 18.9616 115.261 18.3913C114.846 17.8108 114.352 17.396 113.78 17.1462C113.214 16.8879 112.445 16.6248 111.473 16.3568C110.907 16.205 110.461 16.0625 110.132 15.9288C109.803 15.7944 109.538 15.6206 109.338 15.4067C109.145 15.1919 109.048 14.9157 109.048 14.5771C109.048 14.0774 109.227 13.6986 109.584 13.4395C109.942 13.1805 110.386 13.051 110.915 13.051C111.615 13.051 112.163 13.2609 112.557 13.6805C112.957 14.1002 113.172 14.7289 113.2 15.5674L115.603 15.0724C115.489 13.5379 115.006 12.4273 114.155 11.7396C113.311 11.0535 112.231 10.7092 110.915 10.7092C110.142 10.7092 109.428 10.856 108.769 11.1511C108.118 11.4363 107.593 11.8871 107.192 12.5036C106.791 13.1183 106.591 13.8944 106.591 14.8314C106.591 15.6969 106.763 16.3968 107.106 16.9321C107.455 17.4731 107.904 17.9 108.415 18.1764C108.944 18.4624 109.609 18.7346 110.411 18.9929L111.076 19.1936C111.52 19.3249 111.96 19.4767 112.396 19.6484C112.696 19.7649 112.942 19.9256 113.136 20.1305C113.329 20.3355 113.425 20.6034 113.425 20.9338C113.425 21.5133 113.232 21.9599 112.846 22.2716C112.467 22.5846 111.913 22.7403 111.183 22.7403C110.439 22.7403 109.846 22.5083 109.402 22.0446C108.959 21.5805 108.733 20.9117 108.726 20.0371L106.28 20.3846C106.308 21.4378 106.541 22.3166 106.977 23.0215C107.421 23.7264 108.003 24.2477 108.726 24.587Z" fill="white"/>
<path fill-rule="evenodd" clip-rule="evenodd" d="M12.4535 12.1689H0.0742188L3.74215 16.7439V23.0344L12.4535 12.1689Z" fill="white"/>
<path fill-rule="evenodd" clip-rule="evenodd" d="M6.03516 24.7512H18.4144L14.7465 20.1763V13.8857L6.03516 24.7512Z" fill="white"/>
</g>
<defs>
<clipPath id="clip0_2769_41533">
<rect width="115.925" height="30" fill="white" transform="translate(0.0742188)"/>
</clipPath>
</defs>
</svg>
