<svg width="125" height="26" viewBox="0 0 125 26" fill="none" xmlns="http://www.w3.org/2000/svg">
<g clip-path="url(#clip0_2769_41538)">
<mask id="mask0_2769_41538" style="mask-type:luminance" maskUnits="userSpaceOnUse" x="0" y="0" width="125" height="26">
<path d="M124.28 0H0V26H124.28V0Z" fill="white"/>
</mask>
<g mask="url(#mask0_2769_41538)">
<path d="M34.3389 17.2119H34.6597L36.1035 18.5869C37.5475 19.9621 38.3725 20.6038 39.8852 20.6038C41.7873 20.6038 42.9103 19.6641 42.9103 18.014C42.9103 16.7305 42.3144 16.0201 41.0539 15.3325C39.8163 14.6679 37.937 14.1866 36.6536 13.3845C35.3932 12.5823 34.7283 11.3905 34.7283 9.69462C34.7283 7.19647 36.6536 5.17969 39.8852 5.17969C40.8248 5.17969 41.6956 5.34011 42.7956 5.34011H43.9875L45.0646 8.77786H44.7209L43.254 7.37984C41.7645 5.95891 41.0081 5.66097 39.8623 5.66097C38.3039 5.66097 37.2496 6.55479 37.2496 7.95281C37.2496 9.00705 37.8223 9.74045 38.9455 10.3134C40.0685 10.9093 41.9706 11.4364 43.3229 12.2156C44.6752 13.0177 45.4084 14.0949 45.4084 15.9971C45.4084 18.8161 43.2082 21.085 39.7934 21.085C38.6016 21.085 37.5244 20.9246 36.3557 20.9246H35.3932L34.3389 17.2119Z" fill="white"/>
<path d="M57.8757 20.9811V21.0957H53.2464V20.9811L53.9109 19.9497V13.7618C53.9109 12.3637 53.0399 11.8824 51.9628 11.8824C51.2982 11.8824 50.7941 12.0658 50.4732 12.272V19.9497L51.1378 20.9811V21.0957H46.5311V20.9811L47.2188 19.9497V7.00079L46.3936 5.51111V5.39653L50.4732 4.70898V11.9512C51.2296 10.9198 52.49 9.88855 54.1631 9.88855C56.0653 9.88855 57.1882 11.172 57.1882 13.0742V19.9497L57.8757 20.9811Z" fill="white"/>
<path d="M68.8309 18.2539C68.2583 19.7665 66.7685 21.325 64.0871 21.325C60.8784 21.325 58.793 19.056 58.793 15.8475C58.793 12.4555 61.0617 9.88867 64.1557 9.88867C66.7457 9.88867 68.5105 11.5388 68.7393 14.014H61.6348C61.6576 16.8788 62.8952 18.9644 65.852 18.9644C67.1123 18.9644 68.075 18.5748 68.6476 18.0935L68.8309 18.2539ZM61.6348 13.5556H65.3476C65.2332 11.3555 64.7059 10.3929 63.5598 10.3929C62.414 10.3929 61.7034 11.3096 61.6348 13.5556Z" fill="white"/>
<path d="M80.8628 14.6787C80.8628 18.2997 78.0899 21.0958 74.9731 21.0958H73.506V24.8544L74.2392 25.8858V26.0004H69.5645V25.8858L70.2515 24.8544V11.6763L69.5872 10.2325V10.1179H73.506V11.9743C74.171 10.8971 75.2708 9.88867 76.9439 9.88867C79.3047 9.88867 80.8628 11.9743 80.8628 14.6787ZM77.7922 16.5579C77.7922 13.6473 76.9667 11.9284 74.8815 11.9284C74.2393 11.9284 73.8038 12.0889 73.506 12.2951V19.4686L76.4395 20.4312C77.265 19.904 77.7922 18.5977 77.7922 16.5579Z" fill="white"/>
<path d="M93.1932 20.9811V21.0957H88.5632V20.9811L89.2282 19.9497V13.7618C89.2282 12.3637 88.3572 11.8824 87.2801 11.8824C86.6152 11.8824 86.1108 12.0658 85.7903 12.272V19.9497L86.4553 20.9811V21.0957H81.8481V20.9811L82.5358 19.9497V7.00079L81.7109 5.51111V5.39653L85.7903 4.70898V11.9512C86.5463 10.9198 87.8073 9.88855 89.4804 9.88855C91.3823 9.88855 92.5055 11.172 92.5055 13.0742V19.9497L93.1932 20.9811Z" fill="white"/>
<path d="M104.148 18.2539C103.575 19.7665 102.085 21.325 99.4036 21.325C96.1952 21.325 94.1094 19.056 94.1094 15.8475C94.1094 12.4555 96.3785 9.88867 99.4725 9.88867C102.062 9.88867 103.827 11.5388 104.056 14.014H96.9512C96.9746 16.8788 98.2122 18.9644 101.168 18.9644C102.429 18.9644 103.391 18.5748 103.965 18.0935L104.148 18.2539ZM96.9512 13.5556H100.664C100.55 11.3555 100.022 10.3929 98.8765 10.3929C97.7305 10.3929 97.0201 11.3096 96.9512 13.5556Z" fill="white"/>
<path d="M112.536 10.0264V13.3724H109.649C109.328 13.3724 109.053 13.4183 108.847 13.51V19.95L109.58 20.9814V21.096H104.882V20.9814L105.57 19.95V11.6765L104.927 10.2327V10.118H108.847V13.1662C109.511 11.6536 110.634 10.0264 112.285 10.0264H112.536Z" fill="white"/>
<path d="M124.179 20.9811V21.0957H120.81L120.397 19.0559C119.756 20.3851 118.633 21.3248 117.028 21.3248C114.668 21.3248 112.995 19.308 112.995 16.489C112.995 12.7762 115.791 10.2094 119.114 10.026L120.328 9.95732V7.00079L119.526 5.51111V5.39653L123.606 4.70898V18.8496L124.179 20.9811ZM120.328 18.8267V11.722L117.281 10.897C116.501 11.5158 116.089 12.845 116.089 14.6098C116.089 17.6579 117.028 19.2622 118.908 19.2622C119.481 19.2622 119.985 19.1017 120.328 18.8267Z" fill="white"/>
<path d="M17.2657 0L8.63281 8.63291H17.2657V17.2658L25.8986 8.63291V0H17.2657Z" fill="#CCCCCC"/>
<path d="M8.63284 25.8986L17.2658 17.2657H8.63284V8.63281L0 17.2657V25.8986H8.63284Z" fill="white"/>
</g>
</g>
<defs>
<clipPath id="clip0_2769_41538">
<rect width="124.8" height="26" fill="white"/>
</clipPath>
</defs>
</svg>
