<svg width="267" height="46" viewBox="0 0 267 46" fill="none" xmlns="http://www.w3.org/2000/svg">
<path fill-rule="evenodd" clip-rule="evenodd" d="M96.9192 8.30185C96.3929 7.83619 95.7756 7.49158 95.0676 7.26833C94.3597 7.04489 93.6699 6.93294 92.9981 6.93294C92.5262 6.93294 92.0587 7.00749 91.5958 7.15638C91.1328 7.30535 90.7199 7.53814 90.3568 7.85477C89.9937 8.17139 89.6987 8.58113 89.4717 9.08399C89.2448 9.58666 89.1314 10.1919 89.1314 10.8995V16.7375C89.1314 17.4452 89.2448 18.0504 89.4717 18.553C89.6987 19.0559 89.9984 19.4657 90.3704 19.7822C90.7425 20.0989 91.1556 20.3317 91.6094 20.4806C92.0632 20.6295 92.517 20.7041 92.971 20.7041C93.6426 20.7041 94.3235 20.6063 95.0132 20.4107C95.7029 20.2152 96.3567 19.866 96.9739 19.3633L98.4442 21.8214C97.8089 22.3614 97.01 22.799 96.048 23.1341C95.0859 23.4693 94.06 23.637 92.971 23.637C92.0632 23.637 91.1918 23.5019 90.3568 23.2319C89.5216 22.9619 88.782 22.5616 88.1376 22.0308C87.4931 21.5 86.9757 20.8436 86.5855 20.0615C86.1952 19.2794 86 18.3855 86 17.38V10.2571C86 9.25146 86.1952 8.36243 86.5855 7.58931C86.9757 6.81664 87.4931 6.16482 88.1376 5.63417C88.782 5.10351 89.5216 4.69832 90.3568 4.41909C91.1918 4.13968 92.0541 4 92.9437 4C93.9783 4 94.9723 4.1489 95.9254 4.44708C96.8785 4.74494 97.718 5.20124 98.4442 5.81566L96.9192 8.30185ZM112.359 9.69841C111.996 10.3128 111.628 10.9228 111.256 11.5278C110.884 12.1332 110.507 12.7339 110.126 13.3297C109.999 13.5346 109.772 13.8976 109.445 14.419C109.119 14.9405 108.742 15.5411 108.315 16.2207C107.889 16.9005 107.435 17.622 106.954 18.3855C106.473 19.1491 106.014 19.8706 105.579 20.5504C105.143 21.2302 104.762 21.8308 104.435 22.3521C104.108 22.8733 103.881 23.2367 103.754 23.4414H100.895V4.19565H103.999V17.8828H104.136L112.713 4.19565H115.627V23.4414H112.522V9.69841H112.359ZM118.785 4.19565H130.331V7.1006H121.89V11.8493H126.628C127.535 11.8493 128.343 12.0028 129.051 12.3102C129.759 12.6174 130.354 13.0363 130.835 13.5671C131.316 14.0979 131.683 14.7123 131.938 15.4106C132.192 16.1092 132.319 16.8399 132.319 17.6034C132.319 18.2924 132.21 18.9861 131.992 19.6843C131.774 20.3827 131.439 21.0113 130.984 21.5699C130.531 22.1286 129.954 22.5803 129.255 22.9247C128.556 23.2693 127.717 23.4414 126.737 23.4414H118.785V4.19565ZM121.89 20.5644H126.192C127.1 20.5644 127.84 20.2943 128.411 19.7543C128.983 19.2142 129.269 18.4973 129.269 17.6034C129.269 16.7094 128.974 16.0066 128.384 15.4944C127.794 14.9825 127.045 14.7264 126.138 14.7264H121.89V20.5644ZM134.579 23.4414V4.19565H137.683V12.2123H140.107C140.433 12.2123 140.756 12.1797 141.073 12.1147C141.391 12.0495 141.695 11.9238 141.986 11.7375C142.276 11.5514 142.544 11.286 142.789 10.9414C143.034 10.5969 143.247 10.1453 143.429 9.58666L145.117 4.19565H148.194L146.506 9.8101C146.215 10.7599 145.843 11.5514 145.389 12.1845C144.935 12.8177 144.418 13.2366 143.837 13.4414C144.618 13.7021 145.226 14.163 145.662 14.8242C146.097 15.4851 146.451 16.2907 146.724 17.2403L148.521 23.4414H145.199L143.619 17.7709C143.456 17.1937 143.256 16.7236 143.02 16.3604C142.784 15.9972 142.521 15.7133 142.231 15.5085C141.94 15.3035 141.627 15.1686 141.291 15.1034C140.955 15.0383 140.606 15.0057 140.243 15.0057H137.683V23.4414H134.579ZM164.777 17.2123C164.777 18.2179 164.596 19.1211 164.233 19.922C163.87 20.7226 163.366 21.3976 162.721 21.9471C162.077 22.4964 161.324 22.9153 160.461 23.2041C159.599 23.4925 158.678 23.637 157.697 23.637C156.699 23.637 155.768 23.4925 154.906 23.2041C154.044 22.9153 153.3 22.4964 152.674 21.9471C152.047 21.3976 151.553 20.7226 151.189 19.922C150.826 19.1211 150.645 18.2179 150.645 17.2123V10.3688C150.645 9.36322 150.831 8.46938 151.203 7.68723C151.575 6.90495 152.079 6.23937 152.714 5.68995C153.35 5.14066 154.094 4.72169 154.947 4.43292C155.8 4.14448 156.717 4 157.697 4C158.659 4 159.572 4.1489 160.434 4.44708C161.296 4.74494 162.05 5.16864 162.694 5.71793C163.339 6.26735 163.847 6.93775 164.219 7.72924C164.591 8.52074 164.777 9.41919 164.777 10.4247V17.2123ZM161.646 10.8995C161.646 10.2105 161.537 9.61465 161.319 9.11198C161.101 8.60906 160.811 8.19477 160.448 7.86873C160.085 7.54295 159.663 7.30535 159.181 7.15638C158.7 7.00749 158.206 6.93294 157.697 6.93294C157.171 6.93294 156.672 7.00749 156.2 7.15638C155.728 7.30535 155.315 7.54295 154.961 7.86873C154.607 8.19477 154.321 8.60906 154.103 9.11198C153.885 9.61465 153.776 10.2105 153.776 10.8995V16.7376C153.776 17.4452 153.885 18.0504 154.103 18.553C154.321 19.0559 154.611 19.4657 154.974 19.7822C155.338 20.0989 155.755 20.3317 156.227 20.4806C156.699 20.6295 157.189 20.7041 157.697 20.7041C158.206 20.7041 158.7 20.6295 159.181 20.4806C159.663 20.3317 160.085 20.0989 160.448 19.7822C160.811 19.4657 161.101 19.0559 161.319 18.553C161.537 18.0504 161.646 17.4452 161.646 16.7376V10.8995ZM182.205 11.7095L180.462 15.3409L177.821 20.6761H175.533L172.974 15.6481L171.04 11.7095H170.931V23.4414H167.827V4.19565H170.741L174.308 11.5141L176.622 16.4583H176.786L179.073 11.4583L182.559 4.19565H185.418V23.4414H182.314V11.7095H182.205ZM199.496 23.4414V7.07268H191.627V23.4414H188.522V4.19565H202.655V23.4414H199.496ZM210.906 7.07268V12.6871C210.906 14.4005 210.806 15.8995 210.606 17.1843C210.406 18.4693 210.075 19.5728 209.612 20.4944C209.149 21.4162 208.546 22.1612 207.801 22.7292C207.057 23.2973 206.14 23.7208 205.051 24L204.098 21.3465C204.806 21.0487 205.401 20.6807 205.881 20.243C206.363 19.8054 206.749 19.2562 207.039 18.595C207.329 17.9339 207.534 17.1239 207.651 16.1649C207.77 15.2059 207.829 14.0373 207.829 12.6593V4.19565H219.783V23.4414H216.597V7.07268H210.906ZM223.132 4.19565H235.848V7.07268H226.236V12.3521H234.46V15.2291H226.236V20.5922H235.848V23.4414H223.132V4.19565ZM238.49 23.4414V4.19565H241.594V12.2123H244.018C244.344 12.2123 244.666 12.1797 244.984 12.1147C245.302 12.0495 245.606 11.9238 245.897 11.7375C246.187 11.5514 246.455 11.286 246.7 10.9414C246.945 10.5969 247.158 10.1453 247.34 9.58666L249.028 4.19565H252.105L250.417 9.8101C250.126 10.7599 249.754 11.5514 249.3 12.1845C248.846 12.8177 248.329 13.2366 247.748 13.4414C248.529 13.7021 249.137 14.163 249.573 14.8242C250.008 15.4851 250.362 16.2907 250.634 17.2403L252.432 23.4414H249.11L247.53 17.7709C247.367 17.1937 247.167 16.7236 246.931 16.3604C246.695 15.9972 246.432 15.7133 246.142 15.5085C245.851 15.3035 245.538 15.1686 245.202 15.1034C244.866 15.0383 244.517 15.0057 244.154 15.0057H241.594V23.4414H238.49ZM261.826 7.1006V23.4414H258.695V7.1006H253.494V4.19565H267V7.1006H261.826Z" fill="white"/>
<path fill-rule="evenodd" clip-rule="evenodd" d="M29.0754 45.7224C25.358 45.869 21.6919 46 17.8522 46C14.9376 46 12.4606 45.6858 10.4208 45.0571C8.38099 44.4285 6.66363 43.5642 5.26858 42.4643C3.87347 41.3642 2.79174 40.0844 2.02325 38.6253C1.25502 37.166 0.711143 35.5832 0.392003 33.8771C0.0729924 32.1708 -0.0512579 30.3861 0.0190578 28.5227C0.0893735 26.6593 0.271767 24.8073 0.566368 22.9663C0.990139 20.3174 1.6942 17.6233 2.67888 14.8844C3.66337 12.1455 5.09441 9.67582 6.97176 7.47587C8.84918 5.27586 11.2654 3.47976 14.2204 2.08778C17.1751 0.695991 20.8157 0 25.1416 0C30.0718 0 35.0269 0.17786 40 0.329354L20.3308 26.2605L30.6536 26.2932L29.0754 45.7224Z" fill="white"/>
<path fill-rule="evenodd" clip-rule="evenodd" d="M50.5091 14.3959L55.9899 8.17884L61.9684 1.75691C62.489 1.25593 63.0477 0.868804 63.6444 0.595652C64.241 0.322305 64.983 0.185728 65.8704 0.185728H76.5191C77.4067 0.185728 77.8949 0.401958 77.9836 0.834676C78.0723 1.26733 77.8015 1.80243 77.1711 2.44011L60.9346 19.3148L71.5911 43.0897C72.0209 44.0463 72.0414 44.7066 71.6526 45.071C71.2639 45.4353 70.8034 45.6176 70.2708 45.6176H59.6886C58.6679 45.6176 57.9342 45.4126 57.4869 45.0027C57.0395 44.5927 56.684 44.0918 56.4201 43.4996L50.7988 29.8361L47.3912 33.3885L45.7643 43.978C45.7222 44.2511 45.5921 44.5927 45.3739 45.0027C45.1555 45.4126 44.6915 45.6176 43.9815 45.6176C38.9638 45.6176 34.4375 45.8168 30 46L45.1282 19.5078L37.4084 19.5456L41.0339 0C44.3361 0.101866 47.6461 0.185728 50.962 0.185728C51.6719 0.185728 52.073 0.390625 52.1653 0.800484C52.2576 1.21041 52.2828 1.55201 52.2408 1.82536L50.3094 14.3959H50.5091Z" fill="white"/>
<path fill-rule="evenodd" clip-rule="evenodd" d="M87 33H93.8171V34.2981H88.3951V44H87V33ZM94.9533 44V33H98.9299C99.6298 33 100.164 33.035 100.533 33.105C101.051 33.1951 101.485 33.3664 101.835 33.619C102.185 33.8716 102.467 34.2256 102.68 34.6808C102.893 35.136 103 35.6362 103 36.1814C103 37.1169 102.715 37.9085 102.144 38.5563C101.574 39.2041 100.543 39.528 99.0521 39.528H96.3483V44H94.9533ZM96.3483 38.2299H99.0737C99.975 38.2299 100.615 38.0548 100.994 37.7046C101.372 37.3545 101.562 36.8618 101.562 36.2265C101.562 35.7663 101.45 35.3723 101.227 35.0447C101.004 34.717 100.711 34.5007 100.347 34.3956C100.112 34.3306 99.6778 34.2981 99.0449 34.2981H96.3483V38.2299Z" fill="white"/>
<path fill-rule="evenodd" clip-rule="evenodd" d="M104 33.0074H105.412L108.856 39.6503L111.868 33.0074H113.258L109.296 41.4405C108.801 42.4959 108.395 43.1863 108.078 43.5118C107.761 43.8373 107.307 44 106.716 44C106.356 44 105.914 43.9137 105.391 43.7411V42.5131C105.765 42.735 106.161 42.846 106.579 42.846C106.92 42.846 107.215 42.7338 107.462 42.5094C107.709 42.285 107.982 41.7734 108.28 40.9744L104 33.0074ZM114.454 33.0074H122.762V43.8521H121.357V34.2872H115.852V43.8521H114.454V33.0074ZM125.06 33.0074H133.368V43.8521H131.963V34.2872H126.458V43.8521H125.06V33.0074ZM134.492 43.8521L138.548 33.0074H140.054L144.377 43.8521H142.785L141.552 40.5676H137.136L135.976 43.8521H134.492ZM137.539 39.3988H141.12L140.018 36.3954C139.682 35.4831 139.432 34.7335 139.268 34.1466C139.134 34.842 138.944 35.5324 138.699 36.2179L137.539 39.3988ZM149.615 33.0074H151.013V37.7566C151.651 37.7566 152.101 37.6296 152.36 37.3756C152.619 37.1216 152.951 36.5113 153.354 35.5447C153.647 34.8346 153.889 34.3328 154.078 34.0393C154.268 33.7459 154.538 33.4993 154.889 33.2996C155.24 33.0999 155.626 33 156.049 33C156.587 33 156.87 33.0049 156.899 33.0148V34.2576C156.851 34.2576 156.757 34.2551 156.618 34.2502C156.464 34.2452 156.371 34.2428 156.337 34.2428C155.89 34.2428 155.559 34.3537 155.343 34.5757C155.122 34.7976 154.87 35.271 154.586 35.996C154.231 36.9133 153.931 37.4915 153.686 37.7307C153.441 37.9699 153.148 38.161 152.807 38.304C153.489 38.4963 154.161 39.1423 154.824 40.2421L157 43.8521H155.264L153.498 40.9079C153.013 40.0941 152.607 39.5356 152.281 39.2323C151.954 38.9291 151.531 38.7774 151.013 38.7774V43.8521H149.615V33.0074Z" fill="white"/>
<path fill-rule="evenodd" clip-rule="evenodd" d="M157 38.7788C157 37.0596 157.469 35.7137 158.408 34.741C159.347 33.7684 160.558 33.2821 162.043 33.2821C163.015 33.2821 163.892 33.5105 164.672 33.9674C165.453 34.4243 166.048 35.0613 166.457 35.8785C166.867 36.6957 167.072 37.6225 167.072 38.6587C167.072 39.7091 166.856 40.6487 166.425 41.4777C165.994 42.3067 165.383 42.9343 164.593 43.3606C163.803 43.7869 162.951 44 162.036 44C161.044 44 160.158 43.7645 159.378 43.2935C158.597 42.8225 158.006 42.1795 157.603 41.3647C157.201 40.5498 157 39.6879 157 38.7788ZM158.437 38.8C158.437 40.0482 158.778 41.0314 159.46 41.7497C160.143 42.468 160.999 42.8272 162.029 42.8272C163.077 42.8272 163.941 42.4645 164.618 41.7391C165.296 41.0138 165.635 39.9846 165.635 38.6516C165.635 37.8085 165.49 37.0726 165.2 36.4437C164.911 35.8149 164.487 35.3274 163.929 34.9813C163.371 34.6351 162.745 34.462 162.05 34.462C161.064 34.462 160.215 34.7952 159.504 35.4617C158.792 36.1282 158.437 37.2409 158.437 38.8ZM168.824 43.8234V33.4658H170.922L173.415 40.7995C173.645 41.4824 173.812 41.9935 173.918 42.3326C174.038 41.9558 174.224 41.4024 174.478 40.6723L177 33.4658H178.875V43.8234H177.531V35.1543L174.471 43.8234H173.214L170.168 35.006V43.8234H168.824ZM181.137 33.4658H189.42V43.8234H188.02V34.688H182.531V43.8234H181.137V33.4658ZM190.541 43.8234L194.585 33.4658H196.087L200.397 43.8234H198.81L197.581 40.6864H193.177L192.021 43.8234H190.541ZM193.58 39.5701H197.15L196.051 36.7016C195.716 35.8302 195.467 35.1143 195.304 34.5538C195.17 35.2179 194.981 35.8774 194.736 36.5321L193.58 39.5701ZM201.554 43.8234V33.4658H202.947V37.719H208.421V33.4658H209.815V43.8234H208.421V38.9413H202.947V43.8234H201.554ZM212.157 33.4658H213.421V41.6685L219.025 33.4658H220.425V43.8234H219.161V35.6418L213.551 43.8234H212.157V33.4658ZM222.731 33.4658H223.996V41.6685L229.599 33.4658H231V43.8234H229.736V35.6418L224.125 43.8234H222.731V33.4658ZM227.968 31H228.852C228.78 31.5888 228.561 32.0409 228.195 32.3565C227.828 32.6721 227.341 32.8299 226.733 32.8299C226.12 32.8299 225.63 32.6733 225.264 32.3601C224.897 32.0468 224.678 31.5935 224.606 31H225.49C225.557 31.3203 225.69 31.5593 225.889 31.7171C226.088 31.8749 226.354 31.9538 226.69 31.9538C227.078 31.9538 227.371 31.8773 227.57 31.7242C227.769 31.5711 227.901 31.3297 227.968 31Z" fill="white"/>
</svg>
